<?xml version="1.0" encoding="utf-8" standalone="no"?>
<!DOCTYPE svg PUBLIC "-//W3C//DTD SVG 1.1//EN"
  "http://www.w3.org/Graphics/SVG/1.1/DTD/svg11.dtd">
<svg xmlns:xlink="http://www.w3.org/1999/xlink" width="1284.860312pt" height="425.360313pt" viewBox="0 0 1284.860312 425.360313" xmlns="http://www.w3.org/2000/svg" version="1.1">
 <metadata>
  <rdf:RDF xmlns:dc="http://purl.org/dc/elements/1.1/" xmlns:cc="http://creativecommons.org/ns#" xmlns:rdf="http://www.w3.org/1999/02/22-rdf-syntax-ns#">
   <cc:Work>
    <dc:type rdf:resource="http://purl.org/dc/dcmitype/StillImage"/>
    <dc:date>2026-07-22T16:08:05.385191</dc:date>
    <dc:format>image/svg+xml</dc:format>
    <dc:creator>
     <cc:Agent>
      <dc:title>Matplotlib v3.10.0, https://matplotlib.org/</dc:title>
     </cc:Agent>
    </dc:creator>
   </cc:Work>
  </rdf:RDF>
 </metadata>
 <defs>
  <style type="text/css">*{stroke-linejoin: round; stroke-linecap: butt}</style>
 </defs>
 <g id="figure_1">
  <g id="patch_1">
   <path d="M 0 425.360313 
L 1284.860312 425.360313 
L 1284.860312 0 
L 0 0 
z
" style="fill: #ffffff"/>
  </g>
  <g id="axes_1">
   <g id="patch_2">
    <path d="M 38.120313 389.22 
L 416.060313 389.22 
L 416.060313 51.36 
L 38.120313 51.36 
z
" style="fill: #ffffff"/>
   </g>
   <g id="matplotlib.axis_1">
    <g id="xtick_1">
     <g id="line2d_1">
      <path d="M 81.99851 389.22 
L 81.99851 51.36 
" clip-path="url(#p484df30fcd)" style="fill: none; stroke: #cccccc; stroke-opacity: 0.3; stroke-linecap: round"/>
     </g>
     <g id="text_1">
      <!-- 10 -->
      <g style="fill: #262626" transform="translate(75.881479 400.691563) scale(0.11 -0.11)">
       <defs>
        <path id="LiberationSans-31" d="M 488 0 
L 488 478 
L 1609 478 
L 1609 3866 
L 616 3156 
L 616 3688 
L 1656 4403 
L 2175 4403 
L 2175 478 
L 3247 478 
L 3247 0 
L 488 0 
z
" transform="scale(0.015625)"/>
        <path id="LiberationSans-30" d="M 3309 2203 
Q 3309 1569 3189 1136 
Q 3069 703 2861 436 
Q 2653 169 2372 53 
Q 2091 -63 1772 -63 
Q 1450 -63 1172 53 
Q 894 169 689 434 
Q 484 700 367 1133 
Q 250 1566 250 2203 
Q 250 2869 367 3305 
Q 484 3741 690 4000 
Q 897 4259 1178 4364 
Q 1459 4469 1791 4469 
Q 2106 4469 2382 4364 
Q 2659 4259 2865 4000 
Q 3072 3741 3190 3305 
Q 3309 2869 3309 2203 
z
M 2738 2203 
Q 2738 2728 2675 3076 
Q 2613 3425 2491 3633 
Q 2369 3841 2192 3927 
Q 2016 4013 1791 4013 
Q 1553 4013 1372 3925 
Q 1191 3838 1067 3630 
Q 944 3422 881 3073 
Q 819 2725 819 2203 
Q 819 1697 883 1350 
Q 947 1003 1070 792 
Q 1194 581 1372 489 
Q 1550 397 1778 397 
Q 2000 397 2178 489 
Q 2356 581 2479 792 
Q 2603 1003 2670 1350 
Q 2738 1697 2738 2203 
z
" transform="scale(0.015625)"/>
       </defs>
       <use xlink:href="#LiberationSans-31"/>
       <use xlink:href="#LiberationSans-30" transform="translate(55.615234 0)"/>
      </g>
     </g>
    </g>
    <g id="xtick_2">
     <g id="line2d_2">
      <path d="M 155.876851 389.22 
L 155.876851 51.36 
" clip-path="url(#p484df30fcd)" style="fill: none; stroke: #cccccc; stroke-opacity: 0.3; stroke-linecap: round"/>
     </g>
     <g id="text_2">
      <!-- 20 -->
      <g style="fill: #262626" transform="translate(149.75982 400.691563) scale(0.11 -0.11)">
       <defs>
        <path id="LiberationSans-32" d="M 322 0 
L 322 397 
Q 481 763 711 1042 
Q 941 1322 1194 1548 
Q 1447 1775 1695 1969 
Q 1944 2163 2144 2356 
Q 2344 2550 2467 2762 
Q 2591 2975 2591 3244 
Q 2591 3431 2534 3573 
Q 2478 3716 2372 3812 
Q 2266 3909 2117 3957 
Q 1969 4006 1788 4006 
Q 1619 4006 1470 3959 
Q 1322 3913 1206 3819 
Q 1091 3725 1017 3586 
Q 944 3447 922 3263 
L 347 3316 
Q 375 3553 478 3762 
Q 581 3972 762 4130 
Q 944 4288 1198 4378 
Q 1453 4469 1788 4469 
Q 2116 4469 2372 4391 
Q 2628 4313 2804 4159 
Q 2981 4006 3075 3781 
Q 3169 3556 3169 3263 
Q 3169 3041 3089 2841 
Q 3009 2641 2876 2459 
Q 2744 2278 2569 2109 
Q 2394 1941 2203 1780 
Q 2013 1619 1819 1461 
Q 1625 1303 1454 1143 
Q 1284 984 1150 820 
Q 1016 656 941 478 
L 3238 478 
L 3238 0 
L 322 0 
z
" transform="scale(0.015625)"/>
       </defs>
       <use xlink:href="#LiberationSans-32"/>
       <use xlink:href="#LiberationSans-30" transform="translate(55.615234 0)"/>
      </g>
     </g>
    </g>
    <g id="xtick_3">
     <g id="line2d_3">
      <path d="M 229.755192 389.22 
L 229.755192 51.36 
" clip-path="url(#p484df30fcd)" style="fill: none; stroke: #cccccc; stroke-opacity: 0.3; stroke-linecap: round"/>
     </g>
     <g id="text_3">
      <!-- 30 -->
      <g style="fill: #262626" transform="translate(223.638161 400.691563) scale(0.11 -0.11)">
       <defs>
        <path id="LiberationSans-33" d="M 3278 1216 
Q 3278 913 3179 675 
Q 3081 438 2892 273 
Q 2703 109 2423 23 
Q 2144 -63 1784 -63 
Q 1375 -63 1095 39 
Q 816 141 634 308 
Q 453 475 362 689 
Q 272 903 244 1131 
L 825 1184 
Q 850 1009 917 865 
Q 984 722 1100 619 
Q 1216 516 1384 459 
Q 1553 403 1784 403 
Q 2209 403 2451 612 
Q 2694 822 2694 1234 
Q 2694 1478 2586 1626 
Q 2478 1775 2317 1858 
Q 2156 1941 1967 1969 
Q 1778 1997 1619 1997 
L 1300 1997 
L 1300 2484 
L 1606 2484 
Q 1766 2484 1937 2517 
Q 2109 2550 2251 2636 
Q 2394 2722 2486 2869 
Q 2578 3016 2578 3244 
Q 2578 3597 2370 3801 
Q 2163 4006 1753 4006 
Q 1381 4006 1151 3815 
Q 922 3625 884 3278 
L 319 3322 
Q 353 3613 478 3828 
Q 603 4044 795 4186 
Q 988 4328 1234 4398 
Q 1481 4469 1759 4469 
Q 2128 4469 2393 4376 
Q 2659 4284 2828 4126 
Q 2997 3969 3076 3756 
Q 3156 3544 3156 3303 
Q 3156 3109 3103 2940 
Q 3050 2772 2937 2637 
Q 2825 2503 2651 2406 
Q 2478 2309 2234 2259 
L 2234 2247 
Q 2500 2219 2697 2126 
Q 2894 2034 3022 1896 
Q 3150 1759 3214 1584 
Q 3278 1409 3278 1216 
z
" transform="scale(0.015625)"/>
       </defs>
       <use xlink:href="#LiberationSans-33"/>
       <use xlink:href="#LiberationSans-30" transform="translate(55.615234 0)"/>
      </g>
     </g>
    </g>
    <g id="xtick_4">
     <g id="line2d_4">
      <path d="M 303.633533 389.22 
L 303.633533 51.36 
" clip-path="url(#p484df30fcd)" style="fill: none; stroke: #cccccc; stroke-opacity: 0.3; stroke-linecap: round"/>
     </g>
     <g id="text_4">
      <!-- 40 -->
      <g style="fill: #262626" transform="translate(297.516502 400.691563) scale(0.11 -0.11)">
       <defs>
        <path id="LiberationSans-34" d="M 2753 997 
L 2753 0 
L 2222 0 
L 2222 997 
L 147 997 
L 147 1434 
L 2163 4403 
L 2753 4403 
L 2753 1441 
L 3372 1441 
L 3372 997 
L 2753 997 
z
M 2222 3769 
Q 2216 3753 2191 3708 
Q 2166 3663 2134 3606 
Q 2103 3550 2070 3492 
Q 2038 3434 2013 3397 
L 884 1734 
Q 869 1709 839 1668 
Q 809 1628 778 1586 
Q 747 1544 715 1503 
Q 684 1463 666 1441 
L 2222 1441 
L 2222 3769 
z
" transform="scale(0.015625)"/>
       </defs>
       <use xlink:href="#LiberationSans-34"/>
       <use xlink:href="#LiberationSans-30" transform="translate(55.615234 0)"/>
      </g>
     </g>
    </g>
    <g id="xtick_5">
     <g id="line2d_5">
      <path d="M 377.511874 389.22 
L 377.511874 51.36 
" clip-path="url(#p484df30fcd)" style="fill: none; stroke: #cccccc; stroke-opacity: 0.3; stroke-linecap: round"/>
     </g>
     <g id="text_5">
      <!-- 50 -->
      <g style="fill: #262626" transform="translate(371.394842 400.691563) scale(0.11 -0.11)">
       <defs>
        <path id="LiberationSans-35" d="M 3291 1434 
Q 3291 1103 3191 828 
Q 3091 553 2894 354 
Q 2697 156 2405 46 
Q 2113 -63 1728 -63 
Q 1381 -63 1123 18 
Q 866 100 687 242 
Q 509 384 404 575 
Q 300 766 256 984 
L 825 1050 
Q 859 925 921 808 
Q 984 691 1092 598 
Q 1200 506 1358 451 
Q 1516 397 1741 397 
Q 1959 397 2137 464 
Q 2316 531 2442 662 
Q 2569 794 2637 984 
Q 2706 1175 2706 1422 
Q 2706 1625 2640 1795 
Q 2575 1966 2453 2089 
Q 2331 2213 2154 2281 
Q 1978 2350 1753 2350 
Q 1613 2350 1494 2325 
Q 1375 2300 1273 2256 
Q 1172 2213 1089 2155 
Q 1006 2097 934 2034 
L 384 2034 
L 531 4403 
L 3034 4403 
L 3034 3925 
L 1044 3925 
L 959 2528 
Q 1109 2644 1334 2726 
Q 1559 2809 1869 2809 
Q 2197 2809 2459 2709 
Q 2722 2609 2906 2426 
Q 3091 2244 3191 1991 
Q 3291 1738 3291 1434 
z
" transform="scale(0.015625)"/>
       </defs>
       <use xlink:href="#LiberationSans-35"/>
       <use xlink:href="#LiberationSans-30" transform="translate(55.615234 0)"/>
      </g>
     </g>
    </g>
    <g id="text_6">
     <!-- Measured Moisture -->
     <g style="fill: #262626" transform="translate(175.739688 415.670313) scale(0.12 -0.12)">
      <defs>
       <path id="LiberationSans-4d" d="M 4269 0 
L 4269 2938 
Q 4269 3097 4272 3262 
Q 4275 3428 4281 3566 
Q 4288 3725 4297 3875 
Q 4253 3716 4206 3559 
Q 4166 3425 4117 3273 
Q 4069 3122 4022 3000 
L 2884 0 
L 2466 0 
L 1313 3000 
Q 1294 3047 1273 3109 
Q 1253 3172 1229 3242 
Q 1206 3313 1182 3386 
Q 1159 3459 1138 3531 
Q 1084 3697 1034 3875 
Q 1038 3700 1044 3528 
Q 1050 3381 1053 3220 
Q 1056 3059 1056 2938 
L 1056 0 
L 525 0 
L 525 4403 
L 1309 4403 
L 2481 1350 
Q 2503 1288 2534 1189 
Q 2566 1091 2594 987 
Q 2622 884 2645 792 
Q 2669 700 2678 650 
Q 2688 700 2713 794 
Q 2738 888 2770 991 
Q 2803 1094 2834 1191 
Q 2866 1288 2891 1350 
L 4041 4403 
L 4806 4403 
L 4806 0 
L 4269 0 
z
" transform="scale(0.015625)"/>
       <path id="LiberationSans-65" d="M 863 1572 
Q 863 1306 917 1082 
Q 972 859 1086 698 
Q 1200 538 1378 448 
Q 1556 359 1806 359 
Q 2172 359 2392 506 
Q 2613 653 2691 878 
L 3184 738 
Q 3131 597 3036 455 
Q 2941 313 2781 198 
Q 2622 84 2383 10 
Q 2144 -63 1806 -63 
Q 1056 -63 664 384 
Q 272 831 272 1713 
Q 272 2188 390 2517 
Q 509 2847 715 3053 
Q 922 3259 1197 3351 
Q 1472 3444 1784 3444 
Q 2209 3444 2495 3306 
Q 2781 3169 2954 2926 
Q 3128 2684 3201 2356 
Q 3275 2028 3275 1647 
L 3275 1572 
L 863 1572 
z
M 2694 2003 
Q 2647 2538 2422 2783 
Q 2197 3028 1775 3028 
Q 1634 3028 1479 2983 
Q 1325 2938 1194 2822 
Q 1063 2706 972 2507 
Q 881 2309 869 2003 
L 2694 2003 
z
" transform="scale(0.015625)"/>
       <path id="LiberationSans-61" d="M 1294 -63 
Q 784 -63 528 206 
Q 272 475 272 944 
Q 272 1278 398 1492 
Q 525 1706 729 1828 
Q 934 1950 1196 1997 
Q 1459 2044 1731 2050 
L 2491 2063 
L 2491 2247 
Q 2491 2456 2447 2603 
Q 2403 2750 2312 2840 
Q 2222 2931 2086 2973 
Q 1950 3016 1766 3016 
Q 1603 3016 1472 2992 
Q 1341 2969 1244 2908 
Q 1147 2847 1087 2742 
Q 1028 2638 1009 2478 
L 422 2531 
Q 453 2731 540 2898 
Q 628 3066 789 3187 
Q 950 3309 1192 3376 
Q 1434 3444 1778 3444 
Q 2416 3444 2737 3151 
Q 3059 2859 3059 2306 
L 3059 850 
Q 3059 600 3125 473 
Q 3191 347 3375 347 
Q 3422 347 3469 353 
Q 3516 359 3559 369 
L 3559 19 
Q 3453 -6 3348 -18 
Q 3244 -31 3125 -31 
Q 2966 -31 2852 11 
Q 2738 53 2666 139 
Q 2594 225 2556 351 
Q 2519 478 2509 647 
L 2491 647 
Q 2400 484 2292 353 
Q 2184 222 2040 130 
Q 1897 38 1714 -12 
Q 1531 -63 1294 -63 
z
M 1422 359 
Q 1691 359 1892 457 
Q 2094 556 2226 709 
Q 2359 863 2425 1044 
Q 2491 1225 2491 1391 
L 2491 1669 
L 1875 1656 
Q 1669 1653 1483 1626 
Q 1297 1600 1156 1522 
Q 1016 1444 933 1303 
Q 850 1163 850 934 
Q 850 659 998 509 
Q 1147 359 1422 359 
z
" transform="scale(0.015625)"/>
       <path id="LiberationSans-73" d="M 2969 934 
Q 2969 697 2876 511 
Q 2784 325 2609 198 
Q 2434 72 2179 4 
Q 1925 -63 1597 -63 
Q 1303 -63 1067 -17 
Q 831 28 653 128 
Q 475 228 354 392 
Q 234 556 178 794 
L 675 891 
Q 747 619 972 492 
Q 1197 366 1597 366 
Q 1778 366 1929 391 
Q 2081 416 2190 477 
Q 2300 538 2361 639 
Q 2422 741 2422 891 
Q 2422 1044 2350 1142 
Q 2278 1241 2150 1306 
Q 2022 1372 1839 1420 
Q 1656 1469 1438 1528 
Q 1234 1581 1034 1647 
Q 834 1713 673 1820 
Q 513 1928 413 2087 
Q 313 2247 313 2488 
Q 313 2950 642 3192 
Q 972 3434 1603 3434 
Q 2163 3434 2492 3237 
Q 2822 3041 2909 2606 
L 2403 2544 
Q 2375 2675 2300 2764 
Q 2225 2853 2119 2908 
Q 2013 2963 1880 2986 
Q 1747 3009 1603 3009 
Q 1222 3009 1040 2893 
Q 859 2778 859 2544 
Q 859 2406 926 2317 
Q 994 2228 1114 2167 
Q 1234 2106 1403 2061 
Q 1572 2016 1775 1966 
Q 1909 1931 2050 1892 
Q 2191 1853 2323 1798 
Q 2456 1744 2573 1670 
Q 2691 1597 2778 1494 
Q 2866 1391 2917 1253 
Q 2969 1116 2969 934 
z
" transform="scale(0.015625)"/>
       <path id="LiberationSans-75" d="M 981 3381 
L 981 1238 
Q 981 991 1017 825 
Q 1053 659 1134 557 
Q 1216 456 1348 414 
Q 1481 372 1678 372 
Q 1878 372 2039 442 
Q 2200 513 2314 645 
Q 2428 778 2490 973 
Q 2553 1169 2553 1422 
L 2553 3381 
L 3116 3381 
L 3116 722 
Q 3116 616 3117 498 
Q 3119 381 3122 276 
Q 3125 172 3128 97 
Q 3131 22 3134 0 
L 2603 0 
Q 2600 16 2597 84 
Q 2594 153 2589 242 
Q 2584 331 2581 423 
Q 2578 516 2578 578 
L 2569 578 
Q 2488 431 2391 312 
Q 2294 194 2166 111 
Q 2038 28 1872 -17 
Q 1706 -63 1488 -63 
Q 1206 -63 1003 6 
Q 800 75 669 219 
Q 538 363 477 588 
Q 416 813 416 1128 
L 416 3381 
L 981 3381 
z
" transform="scale(0.015625)"/>
       <path id="LiberationSans-72" d="M 444 0 
L 444 2594 
Q 444 2700 442 2811 
Q 441 2922 437 3025 
Q 434 3128 431 3218 
Q 428 3309 425 3381 
L 956 3381 
Q 959 3309 964 3217 
Q 969 3125 973 3028 
Q 978 2931 979 2842 
Q 981 2753 981 2691 
L 994 2691 
Q 1053 2884 1120 3026 
Q 1188 3169 1278 3261 
Q 1369 3353 1494 3398 
Q 1619 3444 1797 3444 
Q 1866 3444 1928 3433 
Q 1991 3422 2025 3413 
L 2025 2897 
Q 1969 2913 1894 2920 
Q 1819 2928 1725 2928 
Q 1531 2928 1395 2840 
Q 1259 2753 1173 2598 
Q 1088 2444 1047 2230 
Q 1006 2016 1006 1763 
L 1006 0 
L 444 0 
z
" transform="scale(0.015625)"/>
       <path id="LiberationSans-64" d="M 2566 544 
Q 2409 219 2151 78 
Q 1894 -63 1513 -63 
Q 872 -63 570 368 
Q 269 800 269 1675 
Q 269 3444 1513 3444 
Q 1897 3444 2153 3303 
Q 2409 3163 2566 2856 
L 2572 2856 
Q 2572 2888 2570 2955 
Q 2569 3022 2567 3095 
Q 2566 3169 2566 3234 
Q 2566 3300 2566 3328 
L 2566 4638 
L 3128 4638 
L 3128 697 
Q 3128 575 3129 462 
Q 3131 350 3134 256 
Q 3138 163 3141 95 
Q 3144 28 3147 0 
L 2609 0 
Q 2603 31 2598 89 
Q 2594 147 2589 222 
Q 2584 297 2581 380 
Q 2578 463 2578 544 
L 2566 544 
z
M 859 1694 
Q 859 1344 903 1094 
Q 947 844 1044 683 
Q 1141 522 1291 447 
Q 1441 372 1656 372 
Q 1878 372 2048 444 
Q 2219 516 2333 677 
Q 2447 838 2506 1097 
Q 2566 1356 2566 1731 
Q 2566 2091 2506 2339 
Q 2447 2588 2331 2741 
Q 2216 2894 2048 2961 
Q 1881 3028 1663 3028 
Q 1456 3028 1306 2956 
Q 1156 2884 1056 2725 
Q 956 2566 907 2311 
Q 859 2056 859 1694 
z
" transform="scale(0.015625)"/>
       <path id="LiberationSans-20" transform="scale(0.015625)"/>
       <path id="LiberationSans-6f" d="M 3291 1694 
Q 3291 806 2900 371 
Q 2509 -63 1766 -63 
Q 1413 -63 1134 43 
Q 856 150 664 369 
Q 472 588 370 917 
Q 269 1247 269 1694 
Q 269 3444 1784 3444 
Q 2178 3444 2464 3334 
Q 2750 3225 2933 3006 
Q 3116 2788 3203 2459 
Q 3291 2131 3291 1694 
z
M 2700 1694 
Q 2700 2088 2639 2344 
Q 2578 2600 2461 2753 
Q 2344 2906 2175 2967 
Q 2006 3028 1794 3028 
Q 1578 3028 1404 2964 
Q 1231 2900 1109 2745 
Q 988 2591 923 2334 
Q 859 2078 859 1694 
Q 859 1300 928 1042 
Q 997 784 1117 631 
Q 1238 478 1402 415 
Q 1566 353 1759 353 
Q 1975 353 2150 414 
Q 2325 475 2447 628 
Q 2569 781 2634 1040 
Q 2700 1300 2700 1694 
z
" transform="scale(0.015625)"/>
       <path id="LiberationSans-69" d="M 428 4100 
L 428 4638 
L 991 4638 
L 991 4100 
L 428 4100 
z
M 428 0 
L 428 3381 
L 991 3381 
L 991 0 
L 428 0 
z
" transform="scale(0.015625)"/>
       <path id="LiberationSans-74" d="M 1731 25 
Q 1603 -9 1470 -29 
Q 1338 -50 1163 -50 
Q 488 -50 488 716 
L 488 2972 
L 97 2972 
L 97 3381 
L 509 3381 
L 675 4138 
L 1050 4138 
L 1050 3381 
L 1675 3381 
L 1675 2972 
L 1050 2972 
L 1050 838 
Q 1050 594 1129 495 
Q 1209 397 1406 397 
Q 1488 397 1564 409 
Q 1641 422 1731 441 
L 1731 25 
z
" transform="scale(0.015625)"/>
      </defs>
      <use xlink:href="#LiberationSans-4d"/>
      <use xlink:href="#LiberationSans-65" transform="translate(83.300781 0)"/>
      <use xlink:href="#LiberationSans-61" transform="translate(138.916016 0)"/>
      <use xlink:href="#LiberationSans-73" transform="translate(194.53125 0)"/>
      <use xlink:href="#LiberationSans-75" transform="translate(244.53125 0)"/>
      <use xlink:href="#LiberationSans-72" transform="translate(300.146484 0)"/>
      <use xlink:href="#LiberationSans-65" transform="translate(333.447266 0)"/>
      <use xlink:href="#LiberationSans-64" transform="translate(389.0625 0)"/>
      <use xlink:href="#LiberationSans-20" transform="translate(444.677734 0)"/>
      <use xlink:href="#LiberationSans-4d" transform="translate(472.460938 0)"/>
      <use xlink:href="#LiberationSans-6f" transform="translate(555.761719 0)"/>
      <use xlink:href="#LiberationSans-69" transform="translate(611.376953 0)"/>
      <use xlink:href="#LiberationSans-73" transform="translate(633.59375 0)"/>
      <use xlink:href="#LiberationSans-74" transform="translate(683.59375 0)"/>
      <use xlink:href="#LiberationSans-75" transform="translate(711.376953 0)"/>
      <use xlink:href="#LiberationSans-72" transform="translate(766.992188 0)"/>
      <use xlink:href="#LiberationSans-65" transform="translate(800.292969 0)"/>
     </g>
    </g>
   </g>
   <g id="matplotlib.axis_2">
    <g id="ytick_1">
     <g id="line2d_6">
      <path d="M 38.120313 349.995023 
L 416.060313 349.995023 
" clip-path="url(#p484df30fcd)" style="fill: none; stroke: #cccccc; stroke-opacity: 0.3; stroke-linecap: round"/>
     </g>
     <g id="text_7">
      <!-- 10 -->
      <g style="fill: #262626" transform="translate(22.38625 353.980804) scale(0.11 -0.11)">
       <use xlink:href="#LiberationSans-31"/>
       <use xlink:href="#LiberationSans-30" transform="translate(55.615234 0)"/>
      </g>
     </g>
    </g>
    <g id="ytick_2">
     <g id="line2d_7">
      <path d="M 38.120313 283.951375 
L 416.060313 283.951375 
" clip-path="url(#p484df30fcd)" style="fill: none; stroke: #cccccc; stroke-opacity: 0.3; stroke-linecap: round"/>
     </g>
     <g id="text_8">
      <!-- 20 -->
      <g style="fill: #262626" transform="translate(22.38625 287.937156) scale(0.11 -0.11)">
       <use xlink:href="#LiberationSans-32"/>
       <use xlink:href="#LiberationSans-30" transform="translate(55.615234 0)"/>
      </g>
     </g>
    </g>
    <g id="ytick_3">
     <g id="line2d_8">
      <path d="M 38.120313 217.907727 
L 416.060313 217.907727 
" clip-path="url(#p484df30fcd)" style="fill: none; stroke: #cccccc; stroke-opacity: 0.3; stroke-linecap: round"/>
     </g>
     <g id="text_9">
      <!-- 30 -->
      <g style="fill: #262626" transform="translate(22.38625 221.893509) scale(0.11 -0.11)">
       <use xlink:href="#LiberationSans-33"/>
       <use xlink:href="#LiberationSans-30" transform="translate(55.615234 0)"/>
      </g>
     </g>
    </g>
    <g id="ytick_4">
     <g id="line2d_9">
      <path d="M 38.120313 151.864079 
L 416.060313 151.864079 
" clip-path="url(#p484df30fcd)" style="fill: none; stroke: #cccccc; stroke-opacity: 0.3; stroke-linecap: round"/>
     </g>
     <g id="text_10">
      <!-- 40 -->
      <g style="fill: #262626" transform="translate(22.38625 155.849861) scale(0.11 -0.11)">
       <use xlink:href="#LiberationSans-34"/>
       <use xlink:href="#LiberationSans-30" transform="translate(55.615234 0)"/>
      </g>
     </g>
    </g>
    <g id="ytick_5">
     <g id="line2d_10">
      <path d="M 38.120313 85.820432 
L 416.060313 85.820432 
" clip-path="url(#p484df30fcd)" style="fill: none; stroke: #cccccc; stroke-opacity: 0.3; stroke-linecap: round"/>
     </g>
     <g id="text_11">
      <!-- 50 -->
      <g style="fill: #262626" transform="translate(22.38625 89.806213) scale(0.11 -0.11)">
       <use xlink:href="#LiberationSans-35"/>
       <use xlink:href="#LiberationSans-30" transform="translate(55.615234 0)"/>
      </g>
     </g>
    </g>
    <g id="text_12">
     <!-- Predicted Moisture -->
     <g style="fill: #262626" transform="translate(15.89625 270.308438) rotate(-90) scale(0.12 -0.12)">
      <defs>
       <path id="LiberationSans-50" d="M 3931 3078 
Q 3931 2791 3836 2542 
Q 3741 2294 3552 2111 
Q 3363 1928 3078 1822 
Q 2794 1716 2416 1716 
L 1122 1716 
L 1122 0 
L 525 0 
L 525 4403 
L 2378 4403 
Q 2769 4403 3059 4308 
Q 3350 4213 3544 4039 
Q 3738 3866 3834 3620 
Q 3931 3375 3931 3078 
z
M 3331 3072 
Q 3331 3491 3075 3708 
Q 2819 3925 2306 3925 
L 1122 3925 
L 1122 2188 
L 2331 2188 
Q 2847 2188 3089 2416 
Q 3331 2644 3331 3072 
z
" transform="scale(0.015625)"/>
       <path id="LiberationSans-63" d="M 859 1706 
Q 859 1416 901 1172 
Q 944 928 1044 751 
Q 1144 575 1308 478 
Q 1472 381 1713 381 
Q 2013 381 2214 543 
Q 2416 706 2463 1044 
L 3031 1006 
Q 3003 797 2909 603 
Q 2816 409 2655 262 
Q 2494 116 2262 26 
Q 2031 -63 1728 -63 
Q 1331 -63 1053 71 
Q 775 206 601 442 
Q 428 678 350 998 
Q 272 1319 272 1694 
Q 272 2034 328 2295 
Q 384 2556 486 2751 
Q 588 2947 725 3080 
Q 863 3213 1023 3292 
Q 1184 3372 1362 3408 
Q 1541 3444 1722 3444 
Q 2006 3444 2228 3366 
Q 2450 3288 2611 3152 
Q 2772 3016 2872 2831 
Q 2972 2647 3013 2434 
L 2434 2391 
Q 2391 2672 2212 2837 
Q 2034 3003 1706 3003 
Q 1466 3003 1305 2923 
Q 1144 2844 1044 2683 
Q 944 2522 901 2278 
Q 859 2034 859 1706 
z
" transform="scale(0.015625)"/>
      </defs>
      <use xlink:href="#LiberationSans-50"/>
      <use xlink:href="#LiberationSans-72" transform="translate(66.699219 0)"/>
      <use xlink:href="#LiberationSans-65" transform="translate(100 0)"/>
      <use xlink:href="#LiberationSans-64" transform="translate(155.615234 0)"/>
      <use xlink:href="#LiberationSans-69" transform="translate(211.230469 0)"/>
      <use xlink:href="#LiberationSans-63" transform="translate(233.447266 0)"/>
      <use xlink:href="#LiberationSans-74" transform="translate(283.447266 0)"/>
      <use xlink:href="#LiberationSans-65" transform="translate(311.230469 0)"/>
      <use xlink:href="#LiberationSans-64" transform="translate(366.845703 0)"/>
      <use xlink:href="#LiberationSans-20" transform="translate(422.460938 0)"/>
      <use xlink:href="#LiberationSans-4d" transform="translate(450.244141 0)"/>
      <use xlink:href="#LiberationSans-6f" transform="translate(533.544922 0)"/>
      <use xlink:href="#LiberationSans-69" transform="translate(589.160156 0)"/>
      <use xlink:href="#LiberationSans-73" transform="translate(611.376953 0)"/>
      <use xlink:href="#LiberationSans-74" transform="translate(661.376953 0)"/>
      <use xlink:href="#LiberationSans-75" transform="translate(689.160156 0)"/>
      <use xlink:href="#LiberationSans-72" transform="translate(744.775391 0)"/>
      <use xlink:href="#LiberationSans-65" transform="translate(778.076172 0)"/>
     </g>
    </g>
   </g>
   <g id="PathCollection_1">
    <defs>
     <path id="mb699374a5e" d="M 0 3 
C 0.795609 3 1.55874 2.683901 2.12132 2.12132 
C 2.683901 1.55874 3 0.795609 3 0 
C 3 -0.795609 2.683901 -1.55874 2.12132 -2.12132 
C 1.55874 -2.683901 0.795609 -3 0 -3 
C -0.795609 -3 -1.55874 -2.683901 -2.12132 -2.12132 
C -2.683901 -1.55874 -3 -0.795609 -3 0 
C -3 0.795609 -2.683901 1.55874 -2.12132 2.12132 
C -1.55874 2.683901 -0.795609 3 0 3 
z
" style="stroke: #1a1a1a; stroke-opacity: 0.7"/>
    </defs>
    <g clip-path="url(#p484df30fcd)">
     <use xlink:href="#mb699374a5e" x="383.263866" y="72.658651" style="fill: #4682b4; fill-opacity: 0.7; stroke: #1a1a1a; stroke-opacity: 0.7"/>
     <use xlink:href="#mb699374a5e" x="383.263866" y="71.822683" style="fill: #4682b4; fill-opacity: 0.7; stroke: #1a1a1a; stroke-opacity: 0.7"/>
     <use xlink:href="#mb699374a5e" x="383.263866" y="72.668569" style="fill: #4682b4; fill-opacity: 0.7; stroke: #1a1a1a; stroke-opacity: 0.7"/>
     <use xlink:href="#mb699374a5e" x="100.287538" y="331.323563" style="fill: #4682b4; fill-opacity: 0.7; stroke: #1a1a1a; stroke-opacity: 0.7"/>
     <use xlink:href="#mb699374a5e" x="100.287538" y="332.438144" style="fill: #4682b4; fill-opacity: 0.7; stroke: #1a1a1a; stroke-opacity: 0.7"/>
     <use xlink:href="#mb699374a5e" x="100.287538" y="329.55734" style="fill: #4682b4; fill-opacity: 0.7; stroke: #1a1a1a; stroke-opacity: 0.7"/>
     <use xlink:href="#mb699374a5e" x="100.287538" y="330.070334" style="fill: #4682b4; fill-opacity: 0.7; stroke: #1a1a1a; stroke-opacity: 0.7"/>
     <use xlink:href="#mb699374a5e" x="298.546948" y="156.763913" style="fill: #4682b4; fill-opacity: 0.7; stroke: #1a1a1a; stroke-opacity: 0.7"/>
     <use xlink:href="#mb699374a5e" x="298.546948" y="158.585063" style="fill: #4682b4; fill-opacity: 0.7; stroke: #1a1a1a; stroke-opacity: 0.7"/>
     <use xlink:href="#mb699374a5e" x="298.546948" y="168.999589" style="fill: #4682b4; fill-opacity: 0.7; stroke: #1a1a1a; stroke-opacity: 0.7"/>
     <use xlink:href="#mb699374a5e" x="91.602694" y="328.147806" style="fill: #4682b4; fill-opacity: 0.7; stroke: #1a1a1a; stroke-opacity: 0.7"/>
     <use xlink:href="#mb699374a5e" x="91.602694" y="327.766621" style="fill: #4682b4; fill-opacity: 0.7; stroke: #1a1a1a; stroke-opacity: 0.7"/>
     <use xlink:href="#mb699374a5e" x="91.602694" y="328.301743" style="fill: #4682b4; fill-opacity: 0.7; stroke: #1a1a1a; stroke-opacity: 0.7"/>
     <use xlink:href="#mb699374a5e" x="91.602694" y="327.271514" style="fill: #4682b4; fill-opacity: 0.7; stroke: #1a1a1a; stroke-opacity: 0.7"/>
     <use xlink:href="#mb699374a5e" x="70.916759" y="350.835838" style="fill: #4682b4; fill-opacity: 0.7; stroke: #1a1a1a; stroke-opacity: 0.7"/>
     <use xlink:href="#mb699374a5e" x="70.916759" y="351.468867" style="fill: #4682b4; fill-opacity: 0.7; stroke: #1a1a1a; stroke-opacity: 0.7"/>
     <use xlink:href="#mb699374a5e" x="70.916759" y="349.682421" style="fill: #4682b4; fill-opacity: 0.7; stroke: #1a1a1a; stroke-opacity: 0.7"/>
     <use xlink:href="#mb699374a5e" x="70.916759" y="348.676765" style="fill: #4682b4; fill-opacity: 0.7; stroke: #1a1a1a; stroke-opacity: 0.7"/>
     <use xlink:href="#mb699374a5e" x="70.916759" y="349.75991" style="fill: #4682b4; fill-opacity: 0.7; stroke: #1a1a1a; stroke-opacity: 0.7"/>
    </g>
   </g>
   <g id="line2d_11">
    <path d="M 55.299403 373.862727 
L 398.881222 66.717273 
" clip-path="url(#p484df30fcd)" style="fill: none; stroke-dasharray: 5.55,2.4; stroke-dashoffset: 0; stroke: #c44e52; stroke-width: 1.5"/>
   </g>
   <g id="patch_3">
    <path d="M 38.120313 389.22 
L 38.120313 51.36 
" style="fill: none; stroke: #cccccc; stroke-linejoin: miter; stroke-linecap: square"/>
   </g>
   <g id="patch_4">
    <path d="M 416.060313 389.22 
L 416.060313 51.36 
" style="fill: none; stroke: #cccccc; stroke-linejoin: miter; stroke-linecap: square"/>
   </g>
   <g id="patch_5">
    <path d="M 38.120312 389.22 
L 416.060313 389.22 
" style="fill: none; stroke: #cccccc; stroke-linejoin: miter; stroke-linecap: square"/>
   </g>
   <g id="patch_6">
    <path d="M 38.120312 51.36 
L 416.060313 51.36 
" style="fill: none; stroke: #cccccc; stroke-linejoin: miter; stroke-linecap: square"/>
   </g>
   <g id="text_13">
    <!-- Predicted vs. Measured Moisture -->
    <g style="fill: #262626" transform="translate(139.392813 45.36) scale(0.12 -0.12)">
     <defs>
      <path id="LiberationSans-76" d="M 1916 0 
L 1250 0 
L 22 3381 
L 622 3381 
L 1366 1181 
Q 1388 1113 1417 1014 
Q 1447 916 1478 809 
Q 1509 703 1536 604 
Q 1563 506 1581 441 
Q 1600 506 1629 604 
Q 1659 703 1690 806 
Q 1722 909 1755 1007 
Q 1788 1106 1813 1175 
L 2581 3381 
L 3178 3381 
L 1916 0 
z
" transform="scale(0.015625)"/>
      <path id="LiberationSans-2e" d="M 584 0 
L 584 684 
L 1194 684 
L 1194 0 
L 584 0 
z
" transform="scale(0.015625)"/>
     </defs>
     <use xlink:href="#LiberationSans-50"/>
     <use xlink:href="#LiberationSans-72" transform="translate(66.699219 0)"/>
     <use xlink:href="#LiberationSans-65" transform="translate(100 0)"/>
     <use xlink:href="#LiberationSans-64" transform="translate(155.615234 0)"/>
     <use xlink:href="#LiberationSans-69" transform="translate(211.230469 0)"/>
     <use xlink:href="#LiberationSans-63" transform="translate(233.447266 0)"/>
     <use xlink:href="#LiberationSans-74" transform="translate(283.447266 0)"/>
     <use xlink:href="#LiberationSans-65" transform="translate(311.230469 0)"/>
     <use xlink:href="#LiberationSans-64" transform="translate(366.845703 0)"/>
     <use xlink:href="#LiberationSans-20" transform="translate(422.460938 0)"/>
     <use xlink:href="#LiberationSans-76" transform="translate(450.244141 0)"/>
     <use xlink:href="#LiberationSans-73" transform="translate(500.244141 0)"/>
     <use xlink:href="#LiberationSans-2e" transform="translate(550.244141 0)"/>
     <use xlink:href="#LiberationSans-20" transform="translate(578.027344 0)"/>
     <use xlink:href="#LiberationSans-4d" transform="translate(605.810547 0)"/>
     <use xlink:href="#LiberationSans-65" transform="translate(689.111328 0)"/>
     <use xlink:href="#LiberationSans-61" transform="translate(744.726562 0)"/>
     <use xlink:href="#LiberationSans-73" transform="translate(800.341797 0)"/>
     <use xlink:href="#LiberationSans-75" transform="translate(850.341797 0)"/>
     <use xlink:href="#LiberationSans-72" transform="translate(905.957031 0)"/>
     <use xlink:href="#LiberationSans-65" transform="translate(939.257812 0)"/>
     <use xlink:href="#LiberationSans-64" transform="translate(994.873047 0)"/>
     <use xlink:href="#LiberationSans-20" transform="translate(1050.488281 0)"/>
     <use xlink:href="#LiberationSans-4d" transform="translate(1078.271484 0)"/>
     <use xlink:href="#LiberationSans-6f" transform="translate(1161.572266 0)"/>
     <use xlink:href="#LiberationSans-69" transform="translate(1217.1875 0)"/>
     <use xlink:href="#LiberationSans-73" transform="translate(1239.404297 0)"/>
     <use xlink:href="#LiberationSans-74" transform="translate(1289.404297 0)"/>
     <use xlink:href="#LiberationSans-75" transform="translate(1317.1875 0)"/>
     <use xlink:href="#LiberationSans-72" transform="translate(1372.802734 0)"/>
     <use xlink:href="#LiberationSans-65" transform="translate(1406.103516 0)"/>
    </g>
   </g>
   <g id="legend_1">
    <g id="line2d_12">
     <path d="M 48.020313 65.44 
L 59.020313 65.44 
L 70.020313 65.44 
" style="fill: none; stroke-dasharray: 5.55,2.4; stroke-dashoffset: 0; stroke: #c44e52; stroke-width: 1.5"/>
    </g>
    <g id="text_14">
     <!-- Ideal ($y = x$) -->
     <g style="fill: #262626" transform="translate(78.820312 69.29) scale(0.11 -0.11)">
      <defs>
       <path id="LiberationSans-49" d="M 591 0 
L 591 4403 
L 1188 4403 
L 1188 0 
L 591 0 
z
" transform="scale(0.015625)"/>
       <path id="LiberationSans-6c" d="M 431 0 
L 431 4638 
L 994 4638 
L 994 0 
L 431 0 
z
" transform="scale(0.015625)"/>
       <path id="LiberationSans-28" d="M 397 1663 
Q 397 2097 462 2494 
Q 528 2891 668 3256 
Q 809 3622 1028 3965 
Q 1247 4309 1550 4638 
L 2094 4638 
Q 1800 4309 1586 3964 
Q 1372 3619 1234 3251 
Q 1097 2884 1030 2487 
Q 963 2091 963 1656 
Q 963 1222 1030 825 
Q 1097 428 1234 59 
Q 1372 -309 1586 -653 
Q 1800 -997 2094 -1325 
L 1550 -1325 
Q 1247 -997 1028 -653 
Q 809 -309 668 56 
Q 528 422 462 817 
Q 397 1213 397 1650 
L 397 1663 
z
" transform="scale(0.015625)"/>
       <path id="DejaVuSans-Oblique-79" d="M 1588 -325 
Q 1188 -997 936 -1164 
Q 684 -1331 294 -1331 
L -159 -1331 
L -63 -850 
L 269 -850 
Q 509 -850 678 -719 
Q 847 -588 1056 -206 
L 1234 128 
L 459 3500 
L 1069 3500 
L 1650 819 
L 3256 3500 
L 3859 3500 
L 1588 -325 
z
" transform="scale(0.015625)"/>
       <path id="DejaVuSans-3d" d="M 678 2906 
L 4684 2906 
L 4684 2381 
L 678 2381 
L 678 2906 
z
M 678 1631 
L 4684 1631 
L 4684 1100 
L 678 1100 
L 678 1631 
z
" transform="scale(0.015625)"/>
       <path id="DejaVuSans-Oblique-78" d="M 3841 3500 
L 2234 1784 
L 3219 0 
L 2559 0 
L 1819 1388 
L 531 0 
L -166 0 
L 1556 1844 
L 641 3500 
L 1300 3500 
L 1972 2234 
L 3144 3500 
L 3841 3500 
z
" transform="scale(0.015625)"/>
       <path id="LiberationSans-29" d="M 1734 1650 
Q 1734 1213 1668 817 
Q 1603 422 1462 56 
Q 1322 -309 1103 -653 
Q 884 -997 581 -1325 
L 38 -1325 
Q 331 -997 545 -653 
Q 759 -309 896 59 
Q 1034 428 1101 825 
Q 1169 1222 1169 1656 
Q 1169 2091 1101 2487 
Q 1034 2884 896 3251 
Q 759 3619 545 3964 
Q 331 4309 38 4638 
L 581 4638 
Q 884 4309 1103 3965 
Q 1322 3622 1462 3256 
Q 1603 2891 1668 2494 
Q 1734 2097 1734 1663 
L 1734 1650 
z
" transform="scale(0.015625)"/>
      </defs>
      <use xlink:href="#LiberationSans-49" transform="translate(0 0.53125)"/>
      <use xlink:href="#LiberationSans-64" transform="translate(27.783203 0.53125)"/>
      <use xlink:href="#LiberationSans-65" transform="translate(83.398438 0.53125)"/>
      <use xlink:href="#LiberationSans-61" transform="translate(139.013672 0.53125)"/>
      <use xlink:href="#LiberationSans-6c" transform="translate(194.628906 0.53125)"/>
      <use xlink:href="#LiberationSans-20" transform="translate(216.845703 0.53125)"/>
      <use xlink:href="#LiberationSans-28" transform="translate(244.628906 0.53125)"/>
      <use xlink:href="#DejaVuSans-Oblique-79" transform="translate(277.929688 0.53125)"/>
      <use xlink:href="#DejaVuSans-3d" transform="translate(356.591797 0.53125)"/>
      <use xlink:href="#DejaVuSans-Oblique-78" transform="translate(459.863281 0.53125)"/>
      <use xlink:href="#LiberationSans-29" transform="translate(519.042969 0.53125)"/>
     </g>
    </g>
   </g>
  </g>
  <g id="axes_2">
   <g id="patch_7">
    <path d="M 468.920313 389.22 
L 846.860312 389.22 
L 846.860312 51.36 
L 468.920313 51.36 
z
" style="fill: #ffffff"/>
   </g>
   <g id="matplotlib.axis_3">
    <g id="xtick_6">
     <g id="line2d_13">
      <path d="M 487.910213 389.22 
L 487.910213 51.36 
" clip-path="url(#p5258cabce7)" style="fill: none; stroke: #cccccc; stroke-opacity: 0.3; stroke-linecap: round"/>
     </g>
     <g id="text_15">
      <!-- 10 -->
      <g style="fill: #262626" transform="translate(481.793181 400.691563) scale(0.11 -0.11)">
       <use xlink:href="#LiberationSans-31"/>
       <use xlink:href="#LiberationSans-30" transform="translate(55.615234 0)"/>
      </g>
     </g>
    </g>
    <g id="xtick_7">
     <g id="line2d_14">
      <path d="M 569.05345 389.22 
L 569.05345 51.36 
" clip-path="url(#p5258cabce7)" style="fill: none; stroke: #cccccc; stroke-opacity: 0.3; stroke-linecap: round"/>
     </g>
     <g id="text_16">
      <!-- 20 -->
      <g style="fill: #262626" transform="translate(562.936418 400.691563) scale(0.11 -0.11)">
       <use xlink:href="#LiberationSans-32"/>
       <use xlink:href="#LiberationSans-30" transform="translate(55.615234 0)"/>
      </g>
     </g>
    </g>
    <g id="xtick_8">
     <g id="line2d_15">
      <path d="M 650.196687 389.22 
L 650.196687 51.36 
" clip-path="url(#p5258cabce7)" style="fill: none; stroke: #cccccc; stroke-opacity: 0.3; stroke-linecap: round"/>
     </g>
     <g id="text_17">
      <!-- 30 -->
      <g style="fill: #262626" transform="translate(644.079656 400.691563) scale(0.11 -0.11)">
       <use xlink:href="#LiberationSans-33"/>
       <use xlink:href="#LiberationSans-30" transform="translate(55.615234 0)"/>
      </g>
     </g>
    </g>
    <g id="xtick_9">
     <g id="line2d_16">
      <path d="M 731.339924 389.22 
L 731.339924 51.36 
" clip-path="url(#p5258cabce7)" style="fill: none; stroke: #cccccc; stroke-opacity: 0.3; stroke-linecap: round"/>
     </g>
     <g id="text_18">
      <!-- 40 -->
      <g style="fill: #262626" transform="translate(725.222893 400.691563) scale(0.11 -0.11)">
       <use xlink:href="#LiberationSans-34"/>
       <use xlink:href="#LiberationSans-30" transform="translate(55.615234 0)"/>
      </g>
     </g>
    </g>
    <g id="xtick_10">
     <g id="line2d_17">
      <path d="M 812.483161 389.22 
L 812.483161 51.36 
" clip-path="url(#p5258cabce7)" style="fill: none; stroke: #cccccc; stroke-opacity: 0.3; stroke-linecap: round"/>
     </g>
     <g id="text_19">
      <!-- 50 -->
      <g style="fill: #262626" transform="translate(806.36613 400.691563) scale(0.11 -0.11)">
       <use xlink:href="#LiberationSans-35"/>
       <use xlink:href="#LiberationSans-30" transform="translate(55.615234 0)"/>
      </g>
     </g>
    </g>
    <g id="text_20">
     <!-- Predicted Moisture -->
     <g style="fill: #262626" transform="translate(607.871875 415.670313) scale(0.12 -0.12)">
      <use xlink:href="#LiberationSans-50"/>
      <use xlink:href="#LiberationSans-72" transform="translate(66.699219 0)"/>
      <use xlink:href="#LiberationSans-65" transform="translate(100 0)"/>
      <use xlink:href="#LiberationSans-64" transform="translate(155.615234 0)"/>
      <use xlink:href="#LiberationSans-69" transform="translate(211.230469 0)"/>
      <use xlink:href="#LiberationSans-63" transform="translate(233.447266 0)"/>
      <use xlink:href="#LiberationSans-74" transform="translate(283.447266 0)"/>
      <use xlink:href="#LiberationSans-65" transform="translate(311.230469 0)"/>
      <use xlink:href="#LiberationSans-64" transform="translate(366.845703 0)"/>
      <use xlink:href="#LiberationSans-20" transform="translate(422.460938 0)"/>
      <use xlink:href="#LiberationSans-4d" transform="translate(450.244141 0)"/>
      <use xlink:href="#LiberationSans-6f" transform="translate(533.544922 0)"/>
      <use xlink:href="#LiberationSans-69" transform="translate(589.160156 0)"/>
      <use xlink:href="#LiberationSans-73" transform="translate(611.376953 0)"/>
      <use xlink:href="#LiberationSans-74" transform="translate(661.376953 0)"/>
      <use xlink:href="#LiberationSans-75" transform="translate(689.160156 0)"/>
      <use xlink:href="#LiberationSans-72" transform="translate(744.775391 0)"/>
      <use xlink:href="#LiberationSans-65" transform="translate(778.076172 0)"/>
     </g>
    </g>
   </g>
   <g id="matplotlib.axis_4">
    <g id="ytick_6">
     <g id="line2d_18">
      <path d="M 468.920313 380.992322 
L 846.860312 380.992322 
" clip-path="url(#p5258cabce7)" style="fill: none; stroke: #cccccc; stroke-opacity: 0.3; stroke-linecap: round"/>
     </g>
     <g id="text_21">
      <!-- −2.0 -->
      <g style="fill: #262626" transform="translate(443.705625 384.978103) scale(0.11 -0.11)">
       <defs>
        <path id="LiberationSans-2212" d="M 316 1900 
L 316 2356 
L 3425 2356 
L 3425 1900 
L 316 1900 
z
" transform="scale(0.015625)"/>
       </defs>
       <use xlink:href="#LiberationSans-2212"/>
       <use xlink:href="#LiberationSans-32" transform="translate(58.398438 0)"/>
       <use xlink:href="#LiberationSans-2e" transform="translate(114.013672 0)"/>
       <use xlink:href="#LiberationSans-30" transform="translate(141.796875 0)"/>
      </g>
     </g>
    </g>
    <g id="ytick_7">
     <g id="line2d_19">
      <path d="M 468.920313 343.042636 
L 846.860312 343.042636 
" clip-path="url(#p5258cabce7)" style="fill: none; stroke: #cccccc; stroke-opacity: 0.3; stroke-linecap: round"/>
     </g>
     <g id="text_22">
      <!-- −1.5 -->
      <g style="fill: #262626" transform="translate(443.705625 347.028418) scale(0.11 -0.11)">
       <use xlink:href="#LiberationSans-2212"/>
       <use xlink:href="#LiberationSans-31" transform="translate(58.398438 0)"/>
       <use xlink:href="#LiberationSans-2e" transform="translate(114.013672 0)"/>
       <use xlink:href="#LiberationSans-35" transform="translate(141.796875 0)"/>
      </g>
     </g>
    </g>
    <g id="ytick_8">
     <g id="line2d_20">
      <path d="M 468.920313 305.09295 
L 846.860312 305.09295 
" clip-path="url(#p5258cabce7)" style="fill: none; stroke: #cccccc; stroke-opacity: 0.3; stroke-linecap: round"/>
     </g>
     <g id="text_23">
      <!-- −1.0 -->
      <g style="fill: #262626" transform="translate(443.705625 309.078732) scale(0.11 -0.11)">
       <use xlink:href="#LiberationSans-2212"/>
       <use xlink:href="#LiberationSans-31" transform="translate(58.398438 0)"/>
       <use xlink:href="#LiberationSans-2e" transform="translate(114.013672 0)"/>
       <use xlink:href="#LiberationSans-30" transform="translate(141.796875 0)"/>
      </g>
     </g>
    </g>
    <g id="ytick_9">
     <g id="line2d_21">
      <path d="M 468.920313 267.143265 
L 846.860312 267.143265 
" clip-path="url(#p5258cabce7)" style="fill: none; stroke: #cccccc; stroke-opacity: 0.3; stroke-linecap: round"/>
     </g>
     <g id="text_24">
      <!-- −0.5 -->
      <g style="fill: #262626" transform="translate(443.705625 271.129046) scale(0.11 -0.11)">
       <use xlink:href="#LiberationSans-2212"/>
       <use xlink:href="#LiberationSans-30" transform="translate(58.398438 0)"/>
       <use xlink:href="#LiberationSans-2e" transform="translate(114.013672 0)"/>
       <use xlink:href="#LiberationSans-35" transform="translate(141.796875 0)"/>
      </g>
     </g>
    </g>
    <g id="ytick_10">
     <g id="line2d_22">
      <path d="M 468.920313 229.193579 
L 846.860312 229.193579 
" clip-path="url(#p5258cabce7)" style="fill: none; stroke: #cccccc; stroke-opacity: 0.3; stroke-linecap: round"/>
     </g>
     <g id="text_25">
      <!-- 0.0 -->
      <g style="fill: #262626" transform="translate(450.130313 233.17936) scale(0.11 -0.11)">
       <use xlink:href="#LiberationSans-30"/>
       <use xlink:href="#LiberationSans-2e" transform="translate(55.615234 0)"/>
       <use xlink:href="#LiberationSans-30" transform="translate(83.398438 0)"/>
      </g>
     </g>
    </g>
    <g id="ytick_11">
     <g id="line2d_23">
      <path d="M 468.920313 191.243893 
L 846.860312 191.243893 
" clip-path="url(#p5258cabce7)" style="fill: none; stroke: #cccccc; stroke-opacity: 0.3; stroke-linecap: round"/>
     </g>
     <g id="text_26">
      <!-- 0.5 -->
      <g style="fill: #262626" transform="translate(450.130313 195.229674) scale(0.11 -0.11)">
       <use xlink:href="#LiberationSans-30"/>
       <use xlink:href="#LiberationSans-2e" transform="translate(55.615234 0)"/>
       <use xlink:href="#LiberationSans-35" transform="translate(83.398438 0)"/>
      </g>
     </g>
    </g>
    <g id="ytick_12">
     <g id="line2d_24">
      <path d="M 468.920313 153.294207 
L 846.860312 153.294207 
" clip-path="url(#p5258cabce7)" style="fill: none; stroke: #cccccc; stroke-opacity: 0.3; stroke-linecap: round"/>
     </g>
     <g id="text_27">
      <!-- 1.0 -->
      <g style="fill: #262626" transform="translate(450.130313 157.279988) scale(0.11 -0.11)">
       <use xlink:href="#LiberationSans-31"/>
       <use xlink:href="#LiberationSans-2e" transform="translate(55.615234 0)"/>
       <use xlink:href="#LiberationSans-30" transform="translate(83.398438 0)"/>
      </g>
     </g>
    </g>
    <g id="ytick_13">
     <g id="line2d_25">
      <path d="M 468.920313 115.344521 
L 846.860312 115.344521 
" clip-path="url(#p5258cabce7)" style="fill: none; stroke: #cccccc; stroke-opacity: 0.3; stroke-linecap: round"/>
     </g>
     <g id="text_28">
      <!-- 1.5 -->
      <g style="fill: #262626" transform="translate(450.130313 119.330303) scale(0.11 -0.11)">
       <use xlink:href="#LiberationSans-31"/>
       <use xlink:href="#LiberationSans-2e" transform="translate(55.615234 0)"/>
       <use xlink:href="#LiberationSans-35" transform="translate(83.398438 0)"/>
      </g>
     </g>
    </g>
    <g id="ytick_14">
     <g id="line2d_26">
      <path d="M 468.920313 77.394836 
L 846.860312 77.394836 
" clip-path="url(#p5258cabce7)" style="fill: none; stroke: #cccccc; stroke-opacity: 0.3; stroke-linecap: round"/>
     </g>
     <g id="text_29">
      <!-- 2.0 -->
      <g style="fill: #262626" transform="translate(450.130313 81.380617) scale(0.11 -0.11)">
       <use xlink:href="#LiberationSans-32"/>
       <use xlink:href="#LiberationSans-2e" transform="translate(55.615234 0)"/>
       <use xlink:href="#LiberationSans-30" transform="translate(83.398438 0)"/>
      </g>
     </g>
    </g>
    <g id="text_30">
     <!-- Residuals -->
     <g style="fill: #262626" transform="translate(437.215625 246.635625) rotate(-90) scale(0.12 -0.12)">
      <defs>
       <path id="LiberationSans-52" d="M 3638 0 
L 2494 1828 
L 1122 1828 
L 1122 0 
L 525 0 
L 525 4403 
L 2597 4403 
Q 2972 4403 3261 4317 
Q 3550 4231 3747 4068 
Q 3944 3906 4047 3672 
Q 4150 3438 4150 3144 
Q 4150 2934 4089 2731 
Q 4028 2528 3897 2359 
Q 3766 2191 3562 2069 
Q 3359 1947 3075 1897 
L 4325 0 
L 3638 0 
z
M 3550 3138 
Q 3550 3338 3481 3484 
Q 3413 3631 3281 3729 
Q 3150 3828 2962 3876 
Q 2775 3925 2538 3925 
L 1122 3925 
L 1122 2300 
L 2563 2300 
Q 2819 2300 3006 2364 
Q 3194 2428 3314 2540 
Q 3434 2653 3492 2806 
Q 3550 2959 3550 3138 
z
" transform="scale(0.015625)"/>
      </defs>
      <use xlink:href="#LiberationSans-52"/>
      <use xlink:href="#LiberationSans-65" transform="translate(72.216797 0)"/>
      <use xlink:href="#LiberationSans-73" transform="translate(127.832031 0)"/>
      <use xlink:href="#LiberationSans-69" transform="translate(177.832031 0)"/>
      <use xlink:href="#LiberationSans-64" transform="translate(200.048828 0)"/>
      <use xlink:href="#LiberationSans-75" transform="translate(255.664062 0)"/>
      <use xlink:href="#LiberationSans-61" transform="translate(311.279297 0)"/>
      <use xlink:href="#LiberationSans-6c" transform="translate(366.894531 0)"/>
      <use xlink:href="#LiberationSans-73" transform="translate(389.111328 0)"/>
     </g>
    </g>
   </g>
   <g id="PathCollection_2">
    <defs>
     <path id="m2d8471f043" d="M 0 3 
C 0.795609 3 1.55874 2.683901 2.12132 2.12132 
C 2.683901 1.55874 3 0.795609 3 0 
C 3 -0.795609 2.683901 -1.55874 2.12132 -2.12132 
C 1.55874 -2.683901 0.795609 -3 0 -3 
C -0.795609 -3 -1.55874 -2.683901 -2.12132 -2.12132 
C -2.683901 -1.55874 -3 -0.795609 -3 0 
C -3 0.795609 -2.683901 1.55874 -2.12132 2.12132 
C -1.55874 2.683901 -0.795609 3 0 3 
z
" style="stroke: #1a1a1a; stroke-opacity: 0.7"/>
    </defs>
    <g clip-path="url(#p5258cabce7)">
     <use xlink:href="#m2d8471f043" x="828.654126" y="137.02784" style="fill: #ffa500; fill-opacity: 0.7; stroke: #1a1a1a; stroke-opacity: 0.7"/>
     <use xlink:href="#m2d8471f043" x="829.681222" y="127.420638" style="fill: #ffa500; fill-opacity: 0.7; stroke: #1a1a1a; stroke-opacity: 0.7"/>
     <use xlink:href="#m2d8471f043" x="828.64194" y="137.141818" style="fill: #ffa500; fill-opacity: 0.7; stroke: #1a1a1a; stroke-opacity: 0.7"/>
     <use xlink:href="#m2d8471f043" x="510.850537" y="202.508933" style="fill: #ffa500; fill-opacity: 0.7; stroke: #1a1a1a; stroke-opacity: 0.7"/>
     <use xlink:href="#m2d8471f043" x="509.48113" y="215.318032" style="fill: #ffa500; fill-opacity: 0.7; stroke: #1a1a1a; stroke-opacity: 0.7"/>
     <use xlink:href="#m2d8471f043" x="513.020573" y="182.210956" style="fill: #ffa500; fill-opacity: 0.7; stroke: #1a1a1a; stroke-opacity: 0.7"/>
     <use xlink:href="#m2d8471f043" x="512.390292" y="188.106447" style="fill: #ffa500; fill-opacity: 0.7; stroke: #1a1a1a; stroke-opacity: 0.7"/>
     <use xlink:href="#m2d8471f043" x="725.319839" y="233.246619" style="fill: #ffa500; fill-opacity: 0.7; stroke: #1a1a1a; stroke-opacity: 0.7"/>
     <use xlink:href="#m2d8471f043" x="723.082318" y="254.175829" style="fill: #ffa500; fill-opacity: 0.7; stroke: #1a1a1a; stroke-opacity: 0.7"/>
     <use xlink:href="#m2d8471f043" x="710.286715" y="373.862727" style="fill: #ffa500; fill-opacity: 0.7; stroke: #1a1a1a; stroke-opacity: 0.7"/>
     <use xlink:href="#m2d8471f043" x="514.752369" y="76.787889" style="fill: #ffa500; fill-opacity: 0.7; stroke: #1a1a1a; stroke-opacity: 0.7"/>
     <use xlink:href="#m2d8471f043" x="515.220704" y="72.407195" style="fill: #ffa500; fill-opacity: 0.7; stroke: #1a1a1a; stroke-opacity: 0.7"/>
     <use xlink:href="#m2d8471f043" x="514.563238" y="78.556977" style="fill: #ffa500; fill-opacity: 0.7; stroke: #1a1a1a; stroke-opacity: 0.7"/>
     <use xlink:href="#m2d8471f043" x="515.829008" y="66.717273" style="fill: #ffa500; fill-opacity: 0.7; stroke: #1a1a1a; stroke-opacity: 0.7"/>
     <use xlink:href="#m2d8471f043" x="486.877162" y="125.00742" style="fill: #ffa500; fill-opacity: 0.7; stroke: #1a1a1a; stroke-opacity: 0.7"/>
     <use xlink:href="#m2d8471f043" x="486.099403" y="132.282382" style="fill: #ffa500; fill-opacity: 0.7; stroke: #1a1a1a; stroke-opacity: 0.7"/>
     <use xlink:href="#m2d8471f043" x="488.294285" y="111.752002" style="fill: #ffa500; fill-opacity: 0.7; stroke: #1a1a1a; stroke-opacity: 0.7"/>
     <use xlink:href="#m2d8471f043" x="489.529864" y="100.194703" style="fill: #ffa500; fill-opacity: 0.7; stroke: #1a1a1a; stroke-opacity: 0.7"/>
     <use xlink:href="#m2d8471f043" x="488.19908" y="112.642527" style="fill: #ffa500; fill-opacity: 0.7; stroke: #1a1a1a; stroke-opacity: 0.7"/>
    </g>
   </g>
   <g id="line2d_27">
    <path d="M 468.920313 229.193579 
L 846.860312 229.193579 
" clip-path="url(#p5258cabce7)" style="fill: none; stroke-dasharray: 5.55,2.4; stroke-dashoffset: 0; stroke: #c44e52; stroke-width: 1.5"/>
   </g>
   <g id="patch_8">
    <path d="M 468.920313 389.22 
L 468.920313 51.36 
" style="fill: none; stroke: #cccccc; stroke-linejoin: miter; stroke-linecap: square"/>
   </g>
   <g id="patch_9">
    <path d="M 846.860312 389.22 
L 846.860312 51.36 
" style="fill: none; stroke: #cccccc; stroke-linejoin: miter; stroke-linecap: square"/>
   </g>
   <g id="patch_10">
    <path d="M 468.920313 389.22 
L 846.860312 389.22 
" style="fill: none; stroke: #cccccc; stroke-linejoin: miter; stroke-linecap: square"/>
   </g>
   <g id="patch_11">
    <path d="M 468.920313 51.36 
L 846.860312 51.36 
" style="fill: none; stroke: #cccccc; stroke-linejoin: miter; stroke-linecap: square"/>
   </g>
   <g id="text_31">
    <!-- Residuals vs. Predicted -->
    <g style="fill: #262626" transform="translate(595.197813 45.36) scale(0.12 -0.12)">
     <use xlink:href="#LiberationSans-52"/>
     <use xlink:href="#LiberationSans-65" transform="translate(72.216797 0)"/>
     <use xlink:href="#LiberationSans-73" transform="translate(127.832031 0)"/>
     <use xlink:href="#LiberationSans-69" transform="translate(177.832031 0)"/>
     <use xlink:href="#LiberationSans-64" transform="translate(200.048828 0)"/>
     <use xlink:href="#LiberationSans-75" transform="translate(255.664062 0)"/>
     <use xlink:href="#LiberationSans-61" transform="translate(311.279297 0)"/>
     <use xlink:href="#LiberationSans-6c" transform="translate(366.894531 0)"/>
     <use xlink:href="#LiberationSans-73" transform="translate(389.111328 0)"/>
     <use xlink:href="#LiberationSans-20" transform="translate(439.111328 0)"/>
     <use xlink:href="#LiberationSans-76" transform="translate(466.894531 0)"/>
     <use xlink:href="#LiberationSans-73" transform="translate(516.894531 0)"/>
     <use xlink:href="#LiberationSans-2e" transform="translate(566.894531 0)"/>
     <use xlink:href="#LiberationSans-20" transform="translate(594.677734 0)"/>
     <use xlink:href="#LiberationSans-50" transform="translate(622.460938 0)"/>
     <use xlink:href="#LiberationSans-72" transform="translate(689.160156 0)"/>
     <use xlink:href="#LiberationSans-65" transform="translate(722.460938 0)"/>
     <use xlink:href="#LiberationSans-64" transform="translate(778.076172 0)"/>
     <use xlink:href="#LiberationSans-69" transform="translate(833.691406 0)"/>
     <use xlink:href="#LiberationSans-63" transform="translate(855.908203 0)"/>
     <use xlink:href="#LiberationSans-74" transform="translate(905.908203 0)"/>
     <use xlink:href="#LiberationSans-65" transform="translate(933.691406 0)"/>
     <use xlink:href="#LiberationSans-64" transform="translate(989.306641 0)"/>
    </g>
   </g>
   <g id="legend_2">
    <g id="line2d_28">
     <path d="M 756.046719 65.381563 
L 767.046719 65.381563 
L 778.046719 65.381563 
" style="fill: none; stroke-dasharray: 5.55,2.4; stroke-dashoffset: 0; stroke: #c44e52; stroke-width: 1.5"/>
    </g>
    <g id="text_32">
     <!-- Zero Error -->
     <g style="fill: #262626" transform="translate(786.846719 69.231562) scale(0.11 -0.11)">
      <defs>
       <path id="LiberationSans-5a" d="M 3709 0 
L 203 0 
L 203 447 
L 2884 3916 
L 431 3916 
L 431 4403 
L 3563 4403 
L 3563 3969 
L 881 488 
L 3709 488 
L 3709 0 
z
" transform="scale(0.015625)"/>
       <path id="LiberationSans-45" d="M 525 0 
L 525 4403 
L 3866 4403 
L 3866 3916 
L 1122 3916 
L 1122 2503 
L 3678 2503 
L 3678 2022 
L 1122 2022 
L 1122 488 
L 3994 488 
L 3994 0 
L 525 0 
z
" transform="scale(0.015625)"/>
      </defs>
      <use xlink:href="#LiberationSans-5a"/>
      <use xlink:href="#LiberationSans-65" transform="translate(61.083984 0)"/>
      <use xlink:href="#LiberationSans-72" transform="translate(116.699219 0)"/>
      <use xlink:href="#LiberationSans-6f" transform="translate(150 0)"/>
      <use xlink:href="#LiberationSans-20" transform="translate(205.615234 0)"/>
      <use xlink:href="#LiberationSans-45" transform="translate(233.398438 0)"/>
      <use xlink:href="#LiberationSans-72" transform="translate(300.097656 0)"/>
      <use xlink:href="#LiberationSans-72" transform="translate(333.398438 0)"/>
      <use xlink:href="#LiberationSans-6f" transform="translate(366.699219 0)"/>
      <use xlink:href="#LiberationSans-72" transform="translate(422.314453 0)"/>
     </g>
    </g>
   </g>
  </g>
  <g id="axes_3">
   <g id="patch_12">
    <path d="M 899.720312 389.22 
L 1277.660312 389.22 
L 1277.660312 51.36 
L 899.720312 51.36 
z
" style="fill: #ffffff"/>
   </g>
   <g id="matplotlib.axis_5">
    <g id="xtick_11">
     <g id="line2d_29">
      <path d="M 929.08933 389.22 
L 929.08933 51.36 
" clip-path="url(#p2d2cc8affb)" style="fill: none; stroke: #cccccc; stroke-opacity: 0.3; stroke-linecap: round"/>
     </g>
     <g id="text_33">
      <!-- 10 -->
      <g style="fill: #262626" transform="translate(922.972298 400.691563) scale(0.11 -0.11)">
       <use xlink:href="#LiberationSans-31"/>
       <use xlink:href="#LiberationSans-30" transform="translate(55.615234 0)"/>
      </g>
     </g>
    </g>
    <g id="xtick_12">
     <g id="line2d_30">
      <path d="M 1010.355505 389.22 
L 1010.355505 51.36 
" clip-path="url(#p2d2cc8affb)" style="fill: none; stroke: #cccccc; stroke-opacity: 0.3; stroke-linecap: round"/>
     </g>
     <g id="text_34">
      <!-- 20 -->
      <g style="fill: #262626" transform="translate(1004.238473 400.691563) scale(0.11 -0.11)">
       <use xlink:href="#LiberationSans-32"/>
       <use xlink:href="#LiberationSans-30" transform="translate(55.615234 0)"/>
      </g>
     </g>
    </g>
    <g id="xtick_13">
     <g id="line2d_31">
      <path d="M 1091.62168 389.22 
L 1091.62168 51.36 
" clip-path="url(#p2d2cc8affb)" style="fill: none; stroke: #cccccc; stroke-opacity: 0.3; stroke-linecap: round"/>
     </g>
     <g id="text_35">
      <!-- 30 -->
      <g style="fill: #262626" transform="translate(1085.504648 400.691563) scale(0.11 -0.11)">
       <use xlink:href="#LiberationSans-33"/>
       <use xlink:href="#LiberationSans-30" transform="translate(55.615234 0)"/>
      </g>
     </g>
    </g>
    <g id="xtick_14">
     <g id="line2d_32">
      <path d="M 1172.887855 389.22 
L 1172.887855 51.36 
" clip-path="url(#p2d2cc8affb)" style="fill: none; stroke: #cccccc; stroke-opacity: 0.3; stroke-linecap: round"/>
     </g>
     <g id="text_36">
      <!-- 40 -->
      <g style="fill: #262626" transform="translate(1166.770824 400.691563) scale(0.11 -0.11)">
       <use xlink:href="#LiberationSans-34"/>
       <use xlink:href="#LiberationSans-30" transform="translate(55.615234 0)"/>
      </g>
     </g>
    </g>
    <g id="xtick_15">
     <g id="line2d_33">
      <path d="M 1254.15403 389.22 
L 1254.15403 51.36 
" clip-path="url(#p2d2cc8affb)" style="fill: none; stroke: #cccccc; stroke-opacity: 0.3; stroke-linecap: round"/>
     </g>
     <g id="text_37">
      <!-- 50 -->
      <g style="fill: #262626" transform="translate(1248.036999 400.691563) scale(0.11 -0.11)">
       <use xlink:href="#LiberationSans-35"/>
       <use xlink:href="#LiberationSans-30" transform="translate(55.615234 0)"/>
      </g>
     </g>
    </g>
    <g id="text_38">
     <!-- Measured Moisture -->
     <g style="fill: #262626" transform="translate(1037.339687 415.670313) scale(0.12 -0.12)">
      <use xlink:href="#LiberationSans-4d"/>
      <use xlink:href="#LiberationSans-65" transform="translate(83.300781 0)"/>
      <use xlink:href="#LiberationSans-61" transform="translate(138.916016 0)"/>
      <use xlink:href="#LiberationSans-73" transform="translate(194.53125 0)"/>
      <use xlink:href="#LiberationSans-75" transform="translate(244.53125 0)"/>
      <use xlink:href="#LiberationSans-72" transform="translate(300.146484 0)"/>
      <use xlink:href="#LiberationSans-65" transform="translate(333.447266 0)"/>
      <use xlink:href="#LiberationSans-64" transform="translate(389.0625 0)"/>
      <use xlink:href="#LiberationSans-20" transform="translate(444.677734 0)"/>
      <use xlink:href="#LiberationSans-4d" transform="translate(472.460938 0)"/>
      <use xlink:href="#LiberationSans-6f" transform="translate(555.761719 0)"/>
      <use xlink:href="#LiberationSans-69" transform="translate(611.376953 0)"/>
      <use xlink:href="#LiberationSans-73" transform="translate(633.59375 0)"/>
      <use xlink:href="#LiberationSans-74" transform="translate(683.59375 0)"/>
      <use xlink:href="#LiberationSans-75" transform="translate(711.376953 0)"/>
      <use xlink:href="#LiberationSans-72" transform="translate(766.992188 0)"/>
      <use xlink:href="#LiberationSans-65" transform="translate(800.292969 0)"/>
     </g>
    </g>
   </g>
   <g id="matplotlib.axis_6">
    <g id="ytick_15">
     <g id="line2d_34">
      <path d="M 899.720312 381.720619 
L 1277.660312 381.720619 
" clip-path="url(#p2d2cc8affb)" style="fill: none; stroke: #cccccc; stroke-opacity: 0.3; stroke-linecap: round"/>
     </g>
     <g id="text_39">
      <!-- 0.0 -->
      <g style="fill: #262626" transform="translate(880.930313 385.7064) scale(0.11 -0.11)">
       <use xlink:href="#LiberationSans-30"/>
       <use xlink:href="#LiberationSans-2e" transform="translate(55.615234 0)"/>
       <use xlink:href="#LiberationSans-30" transform="translate(83.398438 0)"/>
      </g>
     </g>
    </g>
    <g id="ytick_16">
     <g id="line2d_35">
      <path d="M 899.720312 308.145103 
L 1277.660312 308.145103 
" clip-path="url(#p2d2cc8affb)" style="fill: none; stroke: #cccccc; stroke-opacity: 0.3; stroke-linecap: round"/>
     </g>
     <g id="text_40">
      <!-- 0.5 -->
      <g style="fill: #262626" transform="translate(880.930313 312.130884) scale(0.11 -0.11)">
       <use xlink:href="#LiberationSans-30"/>
       <use xlink:href="#LiberationSans-2e" transform="translate(55.615234 0)"/>
       <use xlink:href="#LiberationSans-35" transform="translate(83.398438 0)"/>
      </g>
     </g>
    </g>
    <g id="ytick_17">
     <g id="line2d_36">
      <path d="M 899.720312 234.569587 
L 1277.660312 234.569587 
" clip-path="url(#p2d2cc8affb)" style="fill: none; stroke: #cccccc; stroke-opacity: 0.3; stroke-linecap: round"/>
     </g>
     <g id="text_41">
      <!-- 1.0 -->
      <g style="fill: #262626" transform="translate(880.930313 238.555369) scale(0.11 -0.11)">
       <use xlink:href="#LiberationSans-31"/>
       <use xlink:href="#LiberationSans-2e" transform="translate(55.615234 0)"/>
       <use xlink:href="#LiberationSans-30" transform="translate(83.398438 0)"/>
      </g>
     </g>
    </g>
    <g id="ytick_18">
     <g id="line2d_37">
      <path d="M 899.720312 160.994072 
L 1277.660312 160.994072 
" clip-path="url(#p2d2cc8affb)" style="fill: none; stroke: #cccccc; stroke-opacity: 0.3; stroke-linecap: round"/>
     </g>
     <g id="text_42">
      <!-- 1.5 -->
      <g style="fill: #262626" transform="translate(880.930313 164.979853) scale(0.11 -0.11)">
       <use xlink:href="#LiberationSans-31"/>
       <use xlink:href="#LiberationSans-2e" transform="translate(55.615234 0)"/>
       <use xlink:href="#LiberationSans-35" transform="translate(83.398438 0)"/>
      </g>
     </g>
    </g>
    <g id="ytick_19">
     <g id="line2d_38">
      <path d="M 899.720312 87.418556 
L 1277.660312 87.418556 
" clip-path="url(#p2d2cc8affb)" style="fill: none; stroke: #cccccc; stroke-opacity: 0.3; stroke-linecap: round"/>
     </g>
     <g id="text_43">
      <!-- 2.0 -->
      <g style="fill: #262626" transform="translate(880.930313 91.404337) scale(0.11 -0.11)">
       <use xlink:href="#LiberationSans-32"/>
       <use xlink:href="#LiberationSans-2e" transform="translate(55.615234 0)"/>
       <use xlink:href="#LiberationSans-30" transform="translate(83.398438 0)"/>
      </g>
     </g>
    </g>
    <g id="text_44">
     <!-- Absolute Error -->
     <g style="fill: #262626" transform="translate(874.440313 258.6375) rotate(-90) scale(0.12 -0.12)">
      <defs>
       <path id="LiberationSans-41" d="M 3647 0 
L 3144 1288 
L 1138 1288 
L 631 0 
L 13 0 
L 1809 4403 
L 2488 4403 
L 4256 0 
L 3647 0 
z
M 2400 3206 
Q 2350 3331 2304 3459 
Q 2259 3588 2225 3692 
Q 2191 3797 2167 3867 
Q 2144 3938 2141 3953 
Q 2134 3938 2112 3866 
Q 2091 3794 2055 3687 
Q 2019 3581 1973 3453 
Q 1928 3325 1881 3200 
L 1319 1753 
L 2966 1753 
L 2400 3206 
z
" transform="scale(0.015625)"/>
       <path id="LiberationSans-62" d="M 3291 1706 
Q 3291 -63 2047 -63 
Q 1663 -63 1408 76 
Q 1153 216 994 525 
L 988 525 
Q 988 444 983 356 
Q 978 269 973 194 
Q 969 119 964 66 
Q 959 13 956 0 
L 413 0 
Q 416 28 419 95 
Q 422 163 425 256 
Q 428 350 429 462 
Q 431 575 431 697 
L 431 4638 
L 994 4638 
L 994 3316 
Q 994 3222 992 3136 
Q 991 3050 988 2984 
Q 984 2906 981 2838 
L 994 2838 
Q 1150 3163 1408 3303 
Q 1666 3444 2047 3444 
Q 2688 3444 2989 3012 
Q 3291 2581 3291 1706 
z
M 2700 1688 
Q 2700 2038 2656 2288 
Q 2613 2538 2516 2698 
Q 2419 2859 2269 2934 
Q 2119 3009 1903 3009 
Q 1681 3009 1511 2937 
Q 1341 2866 1227 2706 
Q 1113 2547 1053 2287 
Q 994 2028 994 1653 
Q 994 1291 1053 1044 
Q 1113 797 1227 642 
Q 1341 488 1509 420 
Q 1678 353 1897 353 
Q 2103 353 2253 425 
Q 2403 497 2503 656 
Q 2603 816 2651 1070 
Q 2700 1325 2700 1688 
z
" transform="scale(0.015625)"/>
      </defs>
      <use xlink:href="#LiberationSans-41"/>
      <use xlink:href="#LiberationSans-62" transform="translate(66.699219 0)"/>
      <use xlink:href="#LiberationSans-73" transform="translate(122.314453 0)"/>
      <use xlink:href="#LiberationSans-6f" transform="translate(172.314453 0)"/>
      <use xlink:href="#LiberationSans-6c" transform="translate(227.929688 0)"/>
      <use xlink:href="#LiberationSans-75" transform="translate(250.146484 0)"/>
      <use xlink:href="#LiberationSans-74" transform="translate(305.761719 0)"/>
      <use xlink:href="#LiberationSans-65" transform="translate(333.544922 0)"/>
      <use xlink:href="#LiberationSans-20" transform="translate(389.160156 0)"/>
      <use xlink:href="#LiberationSans-45" transform="translate(416.943359 0)"/>
      <use xlink:href="#LiberationSans-72" transform="translate(483.642578 0)"/>
      <use xlink:href="#LiberationSans-72" transform="translate(516.943359 0)"/>
      <use xlink:href="#LiberationSans-6f" transform="translate(550.244141 0)"/>
      <use xlink:href="#LiberationSans-72" transform="translate(605.859375 0)"/>
     </g>
    </g>
   </g>
   <g id="PathCollection_3">
    <defs>
     <path id="m580910e695" d="M 0 3 
C 0.795609 3 1.55874 2.683901 2.12132 2.12132 
C 2.683901 1.55874 3 0.795609 3 0 
C 3 -0.795609 2.683901 -1.55874 2.12132 -2.12132 
C 1.55874 -2.683901 0.795609 -3 0 -3 
C -0.795609 -3 -1.55874 -2.683901 -2.12132 -2.12132 
C -2.683901 -1.55874 -3 -0.795609 -3 0 
C -3 0.795609 -2.683901 1.55874 -2.12132 2.12132 
C -1.55874 2.683901 -0.795609 3 0 3 
z
" style="stroke: #1a1a1a; stroke-opacity: 0.7"/>
    </defs>
    <g clip-path="url(#p2d2cc8affb)">
     <use xlink:href="#m580910e695" x="1260.481222" y="203.032926" style="fill: #008000; fill-opacity: 0.7; stroke: #1a1a1a; stroke-opacity: 0.7"/>
     <use xlink:href="#m580910e695" x="1260.481222" y="184.406821" style="fill: #008000; fill-opacity: 0.7; stroke: #1a1a1a; stroke-opacity: 0.7"/>
     <use xlink:href="#m580910e695" x="1260.481222" y="203.253903" style="fill: #008000; fill-opacity: 0.7; stroke: #1a1a1a; stroke-opacity: 0.7"/>
     <use xlink:href="#m580910e695" x="949.20726" y="329.985366" style="fill: #008000; fill-opacity: 0.7; stroke: #1a1a1a; stroke-opacity: 0.7"/>
     <use xlink:href="#m580910e695" x="949.20726" y="354.819197" style="fill: #008000; fill-opacity: 0.7; stroke: #1a1a1a; stroke-opacity: 0.7"/>
     <use xlink:href="#m580910e695" x="949.20726" y="290.632362" style="fill: #008000; fill-opacity: 0.7; stroke: #1a1a1a; stroke-opacity: 0.7"/>
     <use xlink:href="#m580910e695" x="949.20726" y="302.062333" style="fill: #008000; fill-opacity: 0.7; stroke: #1a1a1a; stroke-opacity: 0.7"/>
     <use xlink:href="#m580910e695" x="1167.292611" y="373.862727" style="fill: #008000; fill-opacity: 0.7; stroke: #1a1a1a; stroke-opacity: 0.7"/>
     <use xlink:href="#m580910e695" x="1167.292611" y="333.285911" style="fill: #008000; fill-opacity: 0.7; stroke: #1a1a1a; stroke-opacity: 0.7"/>
     <use xlink:href="#m580910e695" x="1167.292611" y="101.241163" style="fill: #008000; fill-opacity: 0.7; stroke: #1a1a1a; stroke-opacity: 0.7"/>
     <use xlink:href="#m580910e695" x="939.653932" y="86.241829" style="fill: #008000; fill-opacity: 0.7; stroke: #1a1a1a; stroke-opacity: 0.7"/>
     <use xlink:href="#m580910e695" x="939.653932" y="77.748694" style="fill: #008000; fill-opacity: 0.7; stroke: #1a1a1a; stroke-opacity: 0.7"/>
     <use xlink:href="#m580910e695" x="939.653932" y="89.671675" style="fill: #008000; fill-opacity: 0.7; stroke: #1a1a1a; stroke-opacity: 0.7"/>
     <use xlink:href="#m580910e695" x="939.653932" y="66.717273" style="fill: #008000; fill-opacity: 0.7; stroke: #1a1a1a; stroke-opacity: 0.7"/>
     <use xlink:href="#m580910e695" x="916.899403" y="179.72816" style="fill: #008000; fill-opacity: 0.7; stroke: #1a1a1a; stroke-opacity: 0.7"/>
     <use xlink:href="#m580910e695" x="916.899403" y="193.832599" style="fill: #008000; fill-opacity: 0.7; stroke: #1a1a1a; stroke-opacity: 0.7"/>
     <use xlink:href="#m580910e695" x="916.899403" y="154.029022" style="fill: #008000; fill-opacity: 0.7; stroke: #1a1a1a; stroke-opacity: 0.7"/>
     <use xlink:href="#m580910e695" x="916.899403" y="131.622137" style="fill: #008000; fill-opacity: 0.7; stroke: #1a1a1a; stroke-opacity: 0.7"/>
     <use xlink:href="#m580910e695" x="916.899403" y="155.755539" style="fill: #008000; fill-opacity: 0.7; stroke: #1a1a1a; stroke-opacity: 0.7"/>
    </g>
   </g>
   <g id="patch_13">
    <path d="M 899.720312 389.22 
L 899.720312 51.36 
" style="fill: none; stroke: #cccccc; stroke-linejoin: miter; stroke-linecap: square"/>
   </g>
   <g id="patch_14">
    <path d="M 1277.660312 389.22 
L 1277.660312 51.36 
" style="fill: none; stroke: #cccccc; stroke-linejoin: miter; stroke-linecap: square"/>
   </g>
   <g id="patch_15">
    <path d="M 899.720312 389.22 
L 1277.660312 389.22 
" style="fill: none; stroke: #cccccc; stroke-linejoin: miter; stroke-linecap: square"/>
   </g>
   <g id="patch_16">
    <path d="M 899.720312 51.36 
L 1277.660312 51.36 
" style="fill: none; stroke: #cccccc; stroke-linejoin: miter; stroke-linecap: square"/>
   </g>
   <g id="text_45">
    <!-- Absolute Error vs. Measured Moisture -->
    <g style="fill: #262626" transform="translate(987.991562 45.36) scale(0.12 -0.12)">
     <use xlink:href="#LiberationSans-41"/>
     <use xlink:href="#LiberationSans-62" transform="translate(66.699219 0)"/>
     <use xlink:href="#LiberationSans-73" transform="translate(122.314453 0)"/>
     <use xlink:href="#LiberationSans-6f" transform="translate(172.314453 0)"/>
     <use xlink:href="#LiberationSans-6c" transform="translate(227.929688 0)"/>
     <use xlink:href="#LiberationSans-75" transform="translate(250.146484 0)"/>
     <use xlink:href="#LiberationSans-74" transform="translate(305.761719 0)"/>
     <use xlink:href="#LiberationSans-65" transform="translate(333.544922 0)"/>
     <use xlink:href="#LiberationSans-20" transform="translate(389.160156 0)"/>
     <use xlink:href="#LiberationSans-45" transform="translate(416.943359 0)"/>
     <use xlink:href="#LiberationSans-72" transform="translate(483.642578 0)"/>
     <use xlink:href="#LiberationSans-72" transform="translate(516.943359 0)"/>
     <use xlink:href="#LiberationSans-6f" transform="translate(550.244141 0)"/>
     <use xlink:href="#LiberationSans-72" transform="translate(605.859375 0)"/>
     <use xlink:href="#LiberationSans-20" transform="translate(639.160156 0)"/>
     <use xlink:href="#LiberationSans-76" transform="translate(666.943359 0)"/>
     <use xlink:href="#LiberationSans-73" transform="translate(716.943359 0)"/>
     <use xlink:href="#LiberationSans-2e" transform="translate(766.943359 0)"/>
     <use xlink:href="#LiberationSans-20" transform="translate(794.726562 0)"/>
     <use xlink:href="#LiberationSans-4d" transform="translate(822.509766 0)"/>
     <use xlink:href="#LiberationSans-65" transform="translate(905.810547 0)"/>
     <use xlink:href="#LiberationSans-61" transform="translate(961.425781 0)"/>
     <use xlink:href="#LiberationSans-73" transform="translate(1017.041016 0)"/>
     <use xlink:href="#LiberationSans-75" transform="translate(1067.041016 0)"/>
     <use xlink:href="#LiberationSans-72" transform="translate(1122.65625 0)"/>
     <use xlink:href="#LiberationSans-65" transform="translate(1155.957031 0)"/>
     <use xlink:href="#LiberationSans-64" transform="translate(1211.572266 0)"/>
     <use xlink:href="#LiberationSans-20" transform="translate(1267.1875 0)"/>
     <use xlink:href="#LiberationSans-4d" transform="translate(1294.970703 0)"/>
     <use xlink:href="#LiberationSans-6f" transform="translate(1378.271484 0)"/>
     <use xlink:href="#LiberationSans-69" transform="translate(1433.886719 0)"/>
     <use xlink:href="#LiberationSans-73" transform="translate(1456.103516 0)"/>
     <use xlink:href="#LiberationSans-74" transform="translate(1506.103516 0)"/>
     <use xlink:href="#LiberationSans-75" transform="translate(1533.886719 0)"/>
     <use xlink:href="#LiberationSans-72" transform="translate(1589.501953 0)"/>
     <use xlink:href="#LiberationSans-65" transform="translate(1622.802734 0)"/>
    </g>
   </g>
  </g>
  <g id="text_46">
   <!-- Random Forest Model Diagnostics (Test Set) -->
   <g style="fill: #262626" transform="translate(494.185312 17.345625) scale(0.14 -0.14)">
    <defs>
     <path id="LiberationSans-Bold-52" d="M 3453 0 
L 2431 1672 
L 1350 1672 
L 1350 0 
L 428 0 
L 428 4403 
L 2628 4403 
Q 3041 4403 3348 4311 
Q 3656 4219 3862 4048 
Q 4069 3878 4170 3636 
Q 4272 3394 4272 3091 
Q 4272 2844 4198 2639 
Q 4125 2434 3995 2275 
Q 3866 2116 3687 2008 
Q 3509 1900 3300 1850 
L 4491 0 
L 3453 0 
z
M 3344 3053 
Q 3344 3375 3133 3531 
Q 2922 3688 2531 3688 
L 1350 3688 
L 1350 2388 
L 2556 2388 
Q 2763 2388 2911 2436 
Q 3059 2484 3154 2573 
Q 3250 2663 3297 2784 
Q 3344 2906 3344 3053 
z
" transform="scale(0.015625)"/>
     <path id="LiberationSans-Bold-61" d="M 1228 -63 
Q 984 -63 792 4 
Q 600 72 465 201 
Q 331 331 259 522 
Q 188 713 188 956 
Q 188 1256 292 1461 
Q 397 1666 578 1792 
Q 759 1919 1003 1976 
Q 1247 2034 1522 2038 
L 2250 2050 
L 2250 2222 
Q 2250 2406 2217 2529 
Q 2184 2653 2121 2731 
Q 2059 2809 1967 2842 
Q 1875 2875 1756 2875 
Q 1647 2875 1561 2853 
Q 1475 2831 1412 2776 
Q 1350 2722 1311 2630 
Q 1272 2538 1256 2397 
L 341 2441 
Q 378 2663 478 2845 
Q 578 3028 754 3162 
Q 931 3297 1189 3370 
Q 1447 3444 1794 3444 
Q 2109 3444 2356 3366 
Q 2603 3288 2775 3133 
Q 2947 2978 3037 2753 
Q 3128 2528 3128 2231 
L 3128 1000 
Q 3128 881 3139 787 
Q 3150 694 3179 630 
Q 3209 566 3264 533 
Q 3319 500 3406 500 
Q 3506 500 3600 519 
L 3600 44 
Q 3522 25 3459 9 
Q 3397 -6 3334 -15 
Q 3272 -25 3201 -31 
Q 3131 -38 3038 -38 
Q 2706 -38 2548 125 
Q 2391 288 2359 603 
L 2341 603 
Q 2166 288 1892 112 
Q 1619 -63 1228 -63 
z
M 2250 1566 
L 1800 1559 
Q 1659 1553 1532 1536 
Q 1406 1519 1311 1464 
Q 1216 1409 1159 1306 
Q 1103 1203 1103 1025 
Q 1103 784 1214 667 
Q 1325 550 1509 550 
Q 1678 550 1815 622 
Q 1953 694 2048 811 
Q 2144 928 2197 1081 
Q 2250 1234 2250 1394 
L 2250 1566 
z
" transform="scale(0.015625)"/>
     <path id="LiberationSans-Bold-6e" d="M 2638 0 
L 2638 1897 
Q 2638 2094 2606 2258 
Q 2575 2422 2503 2539 
Q 2431 2656 2315 2722 
Q 2200 2788 2034 2788 
Q 1875 2788 1745 2717 
Q 1616 2647 1522 2517 
Q 1428 2388 1376 2208 
Q 1325 2028 1325 1813 
L 1325 0 
L 447 0 
L 447 2625 
Q 447 2734 445 2850 
Q 444 2966 439 3070 
Q 434 3175 431 3258 
Q 428 3341 422 3381 
L 1259 3381 
Q 1266 3344 1272 3261 
Q 1278 3178 1284 3078 
Q 1291 2978 1295 2878 
Q 1300 2778 1300 2709 
L 1313 2709 
Q 1491 3097 1759 3272 
Q 2028 3447 2400 3447 
Q 2706 3447 2917 3347 
Q 3128 3247 3261 3072 
Q 3394 2897 3453 2659 
Q 3513 2422 3513 2147 
L 3513 0 
L 2638 0 
z
" transform="scale(0.015625)"/>
     <path id="LiberationSans-Bold-64" d="M 2638 0 
Q 2631 25 2623 89 
Q 2616 153 2608 234 
Q 2600 316 2595 400 
Q 2591 484 2591 550 
L 2578 550 
Q 2425 222 2151 79 
Q 1878 -63 1497 -63 
Q 1178 -63 945 68 
Q 713 200 561 434 
Q 409 669 336 989 
Q 263 1309 263 1688 
Q 263 2072 339 2394 
Q 416 2716 575 2948 
Q 734 3181 979 3312 
Q 1225 3444 1563 3444 
Q 1728 3444 1881 3409 
Q 2034 3375 2165 3303 
Q 2297 3231 2403 3118 
Q 2509 3006 2584 2847 
L 2591 2847 
Q 2591 2878 2589 2939 
Q 2588 3000 2588 3078 
Q 2588 3156 2586 3240 
Q 2584 3325 2584 3403 
L 2584 4638 
L 3463 4638 
L 3463 738 
Q 3463 491 3472 298 
Q 3481 106 3488 0 
L 2638 0 
z
M 2597 1709 
Q 2597 2044 2534 2264 
Q 2472 2484 2370 2614 
Q 2269 2744 2139 2795 
Q 2009 2847 1875 2847 
Q 1706 2847 1576 2781 
Q 1447 2716 1358 2575 
Q 1269 2434 1223 2215 
Q 1178 1997 1178 1688 
Q 1178 538 1869 538 
Q 2000 538 2131 594 
Q 2263 650 2366 784 
Q 2469 919 2533 1145 
Q 2597 1372 2597 1709 
z
" transform="scale(0.015625)"/>
     <path id="LiberationSans-Bold-6f" d="M 3659 1694 
Q 3659 1306 3551 984 
Q 3444 663 3228 430 
Q 3013 197 2691 67 
Q 2369 -63 1941 -63 
Q 1528 -63 1212 65 
Q 897 194 683 425 
Q 469 656 359 979 
Q 250 1303 250 1694 
Q 250 2072 354 2392 
Q 459 2713 671 2947 
Q 884 3181 1206 3312 
Q 1528 3444 1959 3444 
Q 2416 3444 2737 3312 
Q 3059 3181 3264 2948 
Q 3469 2716 3564 2395 
Q 3659 2075 3659 1694 
z
M 2741 1694 
Q 2741 2297 2544 2569 
Q 2347 2841 1972 2841 
Q 1584 2841 1378 2566 
Q 1172 2291 1172 1694 
Q 1172 1391 1226 1172 
Q 1281 953 1381 812 
Q 1481 672 1622 605 
Q 1763 538 1931 538 
Q 2125 538 2276 605 
Q 2428 672 2531 812 
Q 2634 953 2687 1172 
Q 2741 1391 2741 1694 
z
" transform="scale(0.015625)"/>
     <path id="LiberationSans-Bold-6d" d="M 2438 0 
L 2438 1897 
Q 2438 2094 2411 2258 
Q 2384 2422 2323 2539 
Q 2263 2656 2164 2722 
Q 2066 2788 1925 2788 
Q 1791 2788 1681 2717 
Q 1572 2647 1492 2517 
Q 1413 2388 1369 2208 
Q 1325 2028 1325 1813 
L 1325 0 
L 447 0 
L 447 2625 
Q 447 2734 445 2850 
Q 444 2966 439 3070 
Q 434 3175 431 3258 
Q 428 3341 422 3381 
L 1259 3381 
Q 1266 3344 1272 3261 
Q 1278 3178 1284 3078 
Q 1291 2978 1295 2878 
Q 1300 2778 1300 2709 
L 1313 2709 
Q 1475 3097 1717 3272 
Q 1959 3447 2297 3447 
Q 2684 3447 2920 3258 
Q 3156 3069 3238 2709 
L 3256 2709 
Q 3347 2919 3451 3059 
Q 3556 3200 3682 3286 
Q 3809 3372 3957 3409 
Q 4106 3447 4281 3447 
Q 4559 3447 4751 3347 
Q 4944 3247 5064 3072 
Q 5184 2897 5239 2659 
Q 5294 2422 5294 2147 
L 5294 0 
L 4422 0 
L 4422 1897 
Q 4422 2094 4395 2258 
Q 4369 2422 4308 2539 
Q 4247 2656 4148 2722 
Q 4050 2788 3909 2788 
Q 3778 2788 3670 2720 
Q 3563 2653 3483 2529 
Q 3403 2406 3359 2234 
Q 3316 2063 3309 1853 
L 3309 0 
L 2438 0 
z
" transform="scale(0.015625)"/>
     <path id="LiberationSans-Bold-20" transform="scale(0.015625)"/>
     <path id="LiberationSans-Bold-46" d="M 1350 3691 
L 1350 2328 
L 3603 2328 
L 3603 1616 
L 1350 1616 
L 1350 0 
L 428 0 
L 428 4403 
L 3675 4403 
L 3675 3691 
L 1350 3691 
z
" transform="scale(0.015625)"/>
     <path id="LiberationSans-Bold-72" d="M 447 0 
L 447 2588 
Q 447 2697 445 2819 
Q 444 2941 439 3052 
Q 434 3163 431 3252 
Q 428 3341 422 3381 
L 1259 3381 
Q 1266 3344 1272 3251 
Q 1278 3159 1284 3050 
Q 1291 2941 1295 2833 
Q 1300 2725 1300 2659 
L 1313 2659 
Q 1378 2844 1443 2989 
Q 1509 3134 1598 3236 
Q 1688 3338 1813 3392 
Q 1938 3447 2122 3447 
Q 2200 3447 2276 3433 
Q 2353 3419 2394 3400 
L 2394 2666 
Q 2309 2684 2223 2698 
Q 2138 2713 2019 2713 
Q 1691 2713 1508 2447 
Q 1325 2181 1325 1659 
L 1325 0 
L 447 0 
z
" transform="scale(0.015625)"/>
     <path id="LiberationSans-Bold-65" d="M 1831 -63 
Q 1466 -63 1173 45 
Q 881 153 675 373 
Q 469 594 359 926 
Q 250 1259 250 1706 
Q 250 2191 379 2522 
Q 509 2853 729 3058 
Q 950 3263 1237 3353 
Q 1525 3444 1844 3444 
Q 2244 3444 2526 3305 
Q 2809 3166 2990 2916 
Q 3172 2666 3256 2317 
Q 3341 1969 3341 1547 
L 3341 1522 
L 1172 1522 
Q 1172 1309 1209 1126 
Q 1247 944 1331 811 
Q 1416 678 1550 601 
Q 1684 525 1875 525 
Q 2106 525 2253 623 
Q 2400 722 2463 928 
L 3291 856 
Q 3234 713 3132 550 
Q 3031 388 2862 252 
Q 2694 116 2442 26 
Q 2191 -63 1831 -63 
z
M 1831 2891 
Q 1697 2891 1580 2845 
Q 1463 2800 1377 2701 
Q 1291 2603 1237 2447 
Q 1184 2291 1178 2072 
L 2491 2072 
Q 2466 2481 2294 2686 
Q 2122 2891 1831 2891 
z
" transform="scale(0.015625)"/>
     <path id="LiberationSans-Bold-73" d="M 3297 988 
Q 3297 744 3195 550 
Q 3094 356 2900 220 
Q 2706 84 2425 10 
Q 2144 -63 1784 -63 
Q 1463 -63 1203 -16 
Q 944 31 748 139 
Q 553 247 422 419 
Q 291 591 225 844 
L 997 959 
Q 1034 819 1100 731 
Q 1166 644 1262 597 
Q 1359 550 1489 534 
Q 1619 519 1784 519 
Q 1934 519 2064 536 
Q 2194 553 2289 595 
Q 2384 638 2437 714 
Q 2491 791 2491 906 
Q 2491 1038 2414 1114 
Q 2338 1191 2205 1239 
Q 2072 1288 1892 1323 
Q 1713 1359 1509 1406 
Q 1297 1453 1090 1518 
Q 884 1584 721 1696 
Q 559 1809 459 1982 
Q 359 2156 359 2422 
Q 359 2663 453 2852 
Q 547 3041 728 3173 
Q 909 3306 1176 3376 
Q 1444 3447 1791 3447 
Q 2066 3447 2303 3395 
Q 2541 3344 2728 3233 
Q 2916 3122 3042 2950 
Q 3169 2778 3219 2534 
L 2441 2453 
Q 2419 2575 2362 2654 
Q 2306 2734 2223 2781 
Q 2141 2828 2031 2845 
Q 1922 2863 1791 2863 
Q 1478 2863 1322 2783 
Q 1166 2703 1166 2516 
Q 1166 2400 1230 2331 
Q 1294 2263 1411 2217 
Q 1528 2172 1689 2139 
Q 1850 2106 2041 2059 
Q 2275 2009 2501 1942 
Q 2728 1875 2904 1758 
Q 3081 1641 3189 1456 
Q 3297 1272 3297 988 
z
" transform="scale(0.015625)"/>
     <path id="LiberationSans-Bold-74" d="M 1313 -56 
Q 925 -56 715 155 
Q 506 366 506 794 
L 506 2788 
L 78 2788 
L 78 3381 
L 550 3381 
L 825 4175 
L 1375 4175 
L 1375 3381 
L 2016 3381 
L 2016 2788 
L 1375 2788 
L 1375 1031 
Q 1375 784 1469 667 
Q 1563 550 1759 550 
Q 1841 550 1906 562 
Q 1972 575 2053 594 
L 2053 50 
Q 1891 -3 1709 -29 
Q 1528 -56 1313 -56 
z
" transform="scale(0.015625)"/>
     <path id="LiberationSans-Bold-4d" d="M 4084 0 
L 4084 2669 
Q 4084 2828 4089 2997 
Q 4094 3166 4100 3306 
Q 4109 3472 4116 3628 
Q 4050 3381 3991 3159 
Q 3966 3066 3937 2966 
Q 3909 2866 3882 2772 
Q 3856 2678 3831 2597 
Q 3806 2516 3788 2456 
L 2994 0 
L 2338 0 
L 1544 2456 
Q 1525 2516 1501 2597 
Q 1478 2678 1451 2772 
Q 1425 2866 1397 2966 
Q 1369 3066 1341 3159 
Q 1278 3381 1209 3628 
Q 1219 3447 1228 3272 
Q 1234 3122 1240 2956 
Q 1247 2791 1247 2669 
L 1247 0 
L 428 0 
L 428 4403 
L 1663 4403 
L 2450 1941 
Q 2481 1844 2517 1703 
Q 2553 1563 2588 1431 
Q 2625 1278 2669 1113 
Q 2713 1275 2753 1425 
Q 2772 1491 2790 1559 
Q 2809 1628 2828 1693 
Q 2847 1759 2865 1818 
Q 2884 1878 2900 1925 
L 3675 4403 
L 4903 4403 
L 4903 0 
L 4084 0 
z
" transform="scale(0.015625)"/>
     <path id="LiberationSans-Bold-6c" d="M 447 0 
L 447 4638 
L 1325 4638 
L 1325 0 
L 447 0 
z
" transform="scale(0.015625)"/>
     <path id="LiberationSans-Bold-44" d="M 4353 2234 
Q 4353 1684 4187 1267 
Q 4022 850 3734 569 
Q 3447 288 3055 144 
Q 2663 0 2209 0 
L 428 0 
L 428 4403 
L 2022 4403 
Q 2534 4403 2962 4275 
Q 3391 4147 3700 3881 
Q 4009 3616 4181 3206 
Q 4353 2797 4353 2234 
z
M 3425 2234 
Q 3425 2619 3320 2894 
Q 3216 3169 3028 3345 
Q 2841 3522 2580 3606 
Q 2319 3691 2003 3691 
L 1350 3691 
L 1350 713 
L 2131 713 
Q 2409 713 2645 809 
Q 2881 906 3054 1098 
Q 3228 1291 3326 1575 
Q 3425 1859 3425 2234 
z
" transform="scale(0.015625)"/>
     <path id="LiberationSans-Bold-69" d="M 447 3991 
L 447 4638 
L 1325 4638 
L 1325 3991 
L 447 3991 
z
M 447 0 
L 447 3381 
L 1325 3381 
L 1325 0 
L 447 0 
z
" transform="scale(0.015625)"/>
     <path id="LiberationSans-Bold-67" d="M 1863 -1356 
Q 1528 -1356 1273 -1289 
Q 1019 -1222 839 -1101 
Q 659 -981 551 -814 
Q 444 -647 403 -447 
L 1281 -344 
Q 1328 -547 1483 -662 
Q 1638 -778 1888 -778 
Q 2044 -778 2173 -734 
Q 2303 -691 2395 -586 
Q 2488 -481 2539 -309 
Q 2591 -138 2591 116 
Q 2591 203 2591 293 
Q 2591 384 2594 459 
Q 2597 547 2597 628 
L 2591 628 
Q 2438 300 2161 153 
Q 1884 6 1503 6 
Q 1181 6 948 132 
Q 716 259 562 486 
Q 409 713 336 1027 
Q 263 1341 263 1719 
Q 263 2109 341 2426 
Q 419 2744 580 2972 
Q 741 3200 986 3323 
Q 1231 3447 1569 3447 
Q 1906 3447 2173 3303 
Q 2441 3159 2591 2838 
L 2606 2838 
Q 2606 2903 2611 2989 
Q 2616 3075 2622 3154 
Q 2628 3234 2636 3296 
Q 2644 3359 2650 3381 
L 3481 3381 
Q 3475 3269 3469 3066 
Q 3463 2863 3463 2600 
L 3463 103 
Q 3463 -266 3356 -539 
Q 3250 -813 3045 -994 
Q 2841 -1175 2542 -1265 
Q 2244 -1356 1863 -1356 
z
M 2597 1738 
Q 2597 2056 2534 2268 
Q 2472 2481 2372 2609 
Q 2272 2738 2142 2791 
Q 2013 2844 1881 2844 
Q 1713 2844 1583 2778 
Q 1453 2713 1362 2575 
Q 1272 2438 1225 2225 
Q 1178 2013 1178 1719 
Q 1178 1172 1353 894 
Q 1528 616 1875 616 
Q 2006 616 2136 667 
Q 2266 719 2369 848 
Q 2472 978 2534 1193 
Q 2597 1409 2597 1738 
z
" transform="scale(0.015625)"/>
     <path id="LiberationSans-Bold-63" d="M 1856 -63 
Q 1453 -63 1151 62 
Q 850 188 650 416 
Q 450 644 350 964 
Q 250 1284 250 1672 
Q 250 2094 359 2423 
Q 469 2753 675 2979 
Q 881 3206 1182 3325 
Q 1484 3444 1869 3444 
Q 2197 3444 2451 3356 
Q 2706 3269 2890 3117 
Q 3075 2966 3189 2759 
Q 3303 2553 3347 2316 
L 2463 2272 
Q 2425 2531 2275 2686 
Q 2125 2841 1850 2841 
Q 1497 2841 1334 2550 
Q 1172 2259 1172 1706 
Q 1172 538 1863 538 
Q 2113 538 2281 695 
Q 2450 853 2491 1166 
L 3372 1125 
Q 3341 891 3230 677 
Q 3119 463 2930 298 
Q 2741 134 2472 35 
Q 2203 -63 1856 -63 
z
" transform="scale(0.015625)"/>
     <path id="LiberationSans-Bold-28" d="M 1247 -1328 
Q 1006 -981 831 -637 
Q 656 -294 542 68 
Q 428 431 373 823 
Q 319 1216 319 1659 
Q 319 2106 373 2495 
Q 428 2884 542 3245 
Q 656 3606 831 3948 
Q 1006 4291 1247 4638 
L 2125 4638 
Q 1875 4275 1697 3922 
Q 1519 3569 1405 3206 
Q 1291 2844 1237 2461 
Q 1184 2078 1184 1656 
Q 1184 1231 1237 848 
Q 1291 466 1405 103 
Q 1519 -259 1697 -611 
Q 1875 -963 2125 -1328 
L 1247 -1328 
z
" transform="scale(0.015625)"/>
     <path id="LiberationSans-Bold-54" d="M 2416 3691 
L 2416 0 
L 1494 0 
L 1494 3691 
L 72 3691 
L 72 4403 
L 3841 4403 
L 3841 3691 
L 2416 3691 
z
" transform="scale(0.015625)"/>
     <path id="LiberationSans-Bold-53" d="M 4019 1269 
Q 4019 969 3909 723 
Q 3800 478 3570 303 
Q 3341 128 2983 32 
Q 2625 -63 2131 -63 
Q 1694 -63 1359 15 
Q 1025 94 786 247 
Q 547 400 398 626 
Q 250 853 184 1147 
L 1075 1294 
Q 1113 1147 1184 1025 
Q 1256 903 1382 814 
Q 1509 725 1698 676 
Q 1888 628 2156 628 
Q 2625 628 2873 770 
Q 3122 913 3122 1216 
Q 3122 1397 3022 1512 
Q 2922 1628 2756 1703 
Q 2591 1778 2375 1828 
Q 2159 1878 1925 1925 
Q 1738 1969 1550 2016 
Q 1363 2063 1192 2128 
Q 1022 2194 875 2284 
Q 728 2375 620 2508 
Q 513 2641 452 2819 
Q 391 2997 391 3238 
Q 391 3566 522 3800 
Q 653 4034 886 4182 
Q 1119 4331 1441 4400 
Q 1763 4469 2144 4469 
Q 2575 4469 2883 4401 
Q 3191 4334 3398 4196 
Q 3606 4059 3726 3851 
Q 3847 3644 3903 3366 
L 3009 3244 
Q 2941 3528 2730 3672 
Q 2519 3816 2125 3816 
Q 1881 3816 1720 3773 
Q 1559 3731 1464 3659 
Q 1369 3588 1328 3492 
Q 1288 3397 1288 3291 
Q 1288 3128 1366 3023 
Q 1444 2919 1584 2848 
Q 1725 2778 1920 2729 
Q 2116 2681 2350 2631 
Q 2556 2588 2759 2539 
Q 2963 2491 3147 2425 
Q 3331 2359 3490 2265 
Q 3650 2172 3767 2036 
Q 3884 1900 3951 1712 
Q 4019 1525 4019 1269 
z
" transform="scale(0.015625)"/>
     <path id="LiberationSans-Bold-29" d="M 6 -1328 
Q 256 -963 434 -611 
Q 613 -259 727 103 
Q 841 466 894 848 
Q 947 1231 947 1656 
Q 947 2078 894 2461 
Q 841 2844 727 3206 
Q 613 3569 434 3922 
Q 256 4275 6 4638 
L 884 4638 
Q 1125 4291 1300 3948 
Q 1475 3606 1589 3245 
Q 1703 2884 1758 2495 
Q 1813 2106 1813 1659 
Q 1813 1216 1758 823 
Q 1703 431 1589 68 
Q 1475 -294 1300 -637 
Q 1125 -981 884 -1328 
L 6 -1328 
z
" transform="scale(0.015625)"/>
    </defs>
    <use xlink:href="#LiberationSans-Bold-52"/>
    <use xlink:href="#LiberationSans-Bold-61" transform="translate(72.216797 0)"/>
    <use xlink:href="#LiberationSans-Bold-6e" transform="translate(127.832031 0)"/>
    <use xlink:href="#LiberationSans-Bold-64" transform="translate(188.916016 0)"/>
    <use xlink:href="#LiberationSans-Bold-6f" transform="translate(250 0)"/>
    <use xlink:href="#LiberationSans-Bold-6d" transform="translate(311.083984 0)"/>
    <use xlink:href="#LiberationSans-Bold-20" transform="translate(400 0)"/>
    <use xlink:href="#LiberationSans-Bold-46" transform="translate(427.783203 0)"/>
    <use xlink:href="#LiberationSans-Bold-6f" transform="translate(488.867188 0)"/>
    <use xlink:href="#LiberationSans-Bold-72" transform="translate(549.951172 0)"/>
    <use xlink:href="#LiberationSans-Bold-65" transform="translate(588.867188 0)"/>
    <use xlink:href="#LiberationSans-Bold-73" transform="translate(644.482422 0)"/>
    <use xlink:href="#LiberationSans-Bold-74" transform="translate(700.097656 0)"/>
    <use xlink:href="#LiberationSans-Bold-20" transform="translate(733.398438 0)"/>
    <use xlink:href="#LiberationSans-Bold-4d" transform="translate(761.181641 0)"/>
    <use xlink:href="#LiberationSans-Bold-6f" transform="translate(844.482422 0)"/>
    <use xlink:href="#LiberationSans-Bold-64" transform="translate(905.566406 0)"/>
    <use xlink:href="#LiberationSans-Bold-65" transform="translate(966.650391 0)"/>
    <use xlink:href="#LiberationSans-Bold-6c" transform="translate(1022.265625 0)"/>
    <use xlink:href="#LiberationSans-Bold-20" transform="translate(1050.048828 0)"/>
    <use xlink:href="#LiberationSans-Bold-44" transform="translate(1077.832031 0)"/>
    <use xlink:href="#LiberationSans-Bold-69" transform="translate(1150.048828 0)"/>
    <use xlink:href="#LiberationSans-Bold-61" transform="translate(1177.832031 0)"/>
    <use xlink:href="#LiberationSans-Bold-67" transform="translate(1233.447266 0)"/>
    <use xlink:href="#LiberationSans-Bold-6e" transform="translate(1294.53125 0)"/>
    <use xlink:href="#LiberationSans-Bold-6f" transform="translate(1355.615234 0)"/>
    <use xlink:href="#LiberationSans-Bold-73" transform="translate(1416.699219 0)"/>
    <use xlink:href="#LiberationSans-Bold-74" transform="translate(1472.314453 0)"/>
    <use xlink:href="#LiberationSans-Bold-69" transform="translate(1505.615234 0)"/>
    <use xlink:href="#LiberationSans-Bold-63" transform="translate(1533.398438 0)"/>
    <use xlink:href="#LiberationSans-Bold-73" transform="translate(1589.013672 0)"/>
    <use xlink:href="#LiberationSans-Bold-20" transform="translate(1644.628906 0)"/>
    <use xlink:href="#LiberationSans-Bold-28" transform="translate(1672.412109 0)"/>
    <use xlink:href="#LiberationSans-Bold-54" transform="translate(1705.712891 0)"/>
    <use xlink:href="#LiberationSans-Bold-65" transform="translate(1759.421875 0)"/>
    <use xlink:href="#LiberationSans-Bold-73" transform="translate(1815.037109 0)"/>
    <use xlink:href="#LiberationSans-Bold-74" transform="translate(1870.652344 0)"/>
    <use xlink:href="#LiberationSans-Bold-20" transform="translate(1903.953125 0)"/>
    <use xlink:href="#LiberationSans-Bold-53" transform="translate(1931.736328 0)"/>
    <use xlink:href="#LiberationSans-Bold-65" transform="translate(1998.435547 0)"/>
    <use xlink:href="#LiberationSans-Bold-74" transform="translate(2054.050781 0)"/>
    <use xlink:href="#LiberationSans-Bold-29" transform="translate(2087.351562 0)"/>
   </g>
  </g>
 </g>
 <defs>
  <clipPath id="p484df30fcd">
   <rect x="38.120313" y="51.36" width="377.94" height="337.86"/>
  </clipPath>
  <clipPath id="p5258cabce7">
   <rect x="468.920313" y="51.36" width="377.94" height="337.86"/>
  </clipPath>
  <clipPath id="p2d2cc8affb">
   <rect x="899.720312" y="51.36" width="377.94" height="337.86"/>
  </clipPath>
 </defs>
</svg>
